<svg width="197" height="198" viewBox="0 0 197 198" fill="none" xmlns="http://www.w3.org/2000/svg">
<path d="M98.0182 197.157C152.139 197.157 196.013 153.022 196.013 98.5786C196.013 44.1351 152.139 0 98.0182 0C43.8972 0 0.0234375 44.1351 0.0234375 98.5786C0.0234375 153.022 43.8972 197.157 98.0182 197.157Z" fill="#DE5A4C"/>
<path d="M40.354 92.3864C38.1872 92.2378 36.316 92.5846 34.5925 93.2781C32.9182 93.9716 30.9977 92.7827 30.9977 90.9499V90.9003C30.9977 82.1323 35.1342 74.8008 40.551 74.8008C45.9678 74.8008 50.3504 81.8846 50.3504 90.6526C50.3504 91.0985 50.3505 91.5443 50.3012 91.9901C50.2027 93.823 48.233 95.0119 46.6079 94.1698C44.6874 93.1295 42.5699 92.535 40.354 92.3864Z" fill="white"/>
<path d="M103.731 89.9096C101.121 89.761 98.8554 90.2563 96.9349 91.2966C95.8516 91.8911 94.522 91.0489 94.4235 89.8105C94.3743 89.3647 94.3743 88.8693 94.3743 88.4235C94.3743 79.6554 98.5107 72.3239 103.928 72.3239C109.344 72.3239 113.727 79.4077 113.727 88.1758C113.727 89.117 113.678 90.0582 113.579 90.9994C113.432 92.2378 112.053 92.9313 110.969 92.2873C108.803 90.9003 106.291 90.0582 103.731 89.9096Z" fill="white"/>
<path d="M39.0244 140.685H114.613C121.458 140.685 127.023 135.038 127.023 128.202V120.523C127.023 113.638 121.409 108.04 114.613 108.04H39.0244C32.1795 108.04 26.615 113.687 26.615 120.523V128.202C26.615 135.038 32.1795 140.685 39.0244 140.685Z" fill="white"/>
<path d="M127.072 122.356H26.615V123.347H127.072V122.356Z" fill="#3B3B3B"/>
<path d="M79.0596 107.991H78.0747V140.685H79.0596V107.991Z" fill="#3B3B3B"/>
<path d="M60.8394 107.991H59.8545V140.685H60.8394V107.991Z" fill="#3B3B3B"/>
<path d="M41.142 107.991H40.1571V140.685H41.142V107.991Z" fill="#3B3B3B"/>
<path d="M95.3098 107.991H94.325V140.685H95.3098V107.991Z" fill="#3B3B3B"/>
<path d="M112.545 107.991H111.56V140.685H112.545V107.991Z" fill="#3B3B3B"/>
<path d="M48.5284 74.9494C43.8995 70.3425 39.2706 65.7356 34.6909 61.0791C32.6719 59.0481 35.7743 55.8777 37.8425 57.9087C42.4714 62.5157 47.1003 67.1226 51.68 71.7791C53.6989 73.8101 50.5474 76.9804 48.5284 74.9494Z" fill="#363636"/>
<path d="M107.67 62.912C102.499 67.1721 97.2796 71.3828 92.109 75.643C89.893 77.4263 86.7414 74.3055 88.9574 72.4726C94.128 68.2124 99.3478 64.0018 104.518 59.7416C106.734 57.9583 109.886 61.0791 107.67 62.912Z" fill="#363636"/>
<path d="M138.644 109.972C145.035 109.972 150.217 105.315 150.217 99.5693C150.217 93.824 145.035 89.1665 138.644 89.1665C132.253 89.1665 127.072 93.824 127.072 99.5693C127.072 105.315 132.253 109.972 138.644 109.972Z" fill="#973C48"/>
<path d="M15.0428 109.972C21.434 109.972 26.6151 105.315 26.6151 99.5693C26.6151 93.824 21.434 89.1665 15.0428 89.1665C8.65165 89.1665 3.47058 93.824 3.47058 99.5693C3.47058 105.315 8.65165 109.972 15.0428 109.972Z" fill="#973C48"/>
<path d="M97.9196 88.1263C94.1279 88.1263 94.1279 82.1818 97.9196 82.1818C101.711 82.1818 101.761 88.1263 97.9196 88.1263Z" fill="#363636"/>
<path d="M44.5889 90.3554C40.7972 90.3554 40.7972 84.411 44.5889 84.411C48.3807 84.411 48.3807 90.3554 44.5889 90.3554Z" fill="#363636"/>
<path d="M96.7379 87.0364C94.8174 87.0364 94.8174 84.0642 96.7379 84.0642C98.6091 84.0642 98.6091 87.0364 96.7379 87.0364Z" fill="#363636"/>
<path d="M45.5245 89.2656C43.604 89.2656 43.604 86.2934 45.5245 86.2934C47.445 86.2934 47.445 89.2656 45.5245 89.2656Z" fill="#363636"/>
<path d="M45.5245 89.2656C43.604 89.2656 43.604 86.2934 45.5245 86.2934C47.445 86.2934 47.445 89.2656 45.5245 89.2656Z" fill="#363636"/>
</svg>
