<svg width="41" height="31" viewBox="0 0 41 31" fill="none" xmlns="http://www.w3.org/2000/svg">
<path d="M31.8521 20.8202C31.7776 20.4401 31.6733 20.0824 31.5466 19.7396C31.0025 18.2342 30.0486 17.0716 29.0872 16.222C28.3942 15.6109 27.7011 15.1488 27.157 14.8358C26.6428 14.5377 26.2329 14.3514 26.0392 14.2694L25.9572 14.2322L21.6198 14.6644C21.3888 14.6868 21.195 14.8284 21.0981 15.0371C21.0012 15.2457 21.0236 15.4842 21.1652 15.6705L22.8197 17.9734L23.0432 18.2789L23.1625 18.3162C23.8481 18.5248 24.5039 18.8229 25.1001 19.203C25.13 19.2254 25.1598 19.2403 25.1896 19.2626C26.7546 20.2985 27.6564 21.7145 28.0812 22.5567C28.2898 22.974 28.3867 23.2423 28.3867 23.2497L28.5507 23.7416L31.8968 21.0289L31.8521 20.8202ZM28.8711 22.5492C28.8115 22.4151 28.737 22.2586 28.6475 22.0871C28.178 21.2003 27.2912 19.8514 25.7783 18.7931C25.6814 18.7261 25.5846 18.659 25.4802 18.5919C24.8617 18.1969 24.1909 17.8839 23.4829 17.6603L21.8434 15.3724L25.8454 14.97C25.9497 15.0147 26.0839 15.0818 26.2478 15.1563C26.4118 15.2383 26.5981 15.3352 26.8068 15.4544C27.2912 15.7301 27.9023 16.1326 28.5134 16.6617C29.4822 17.5038 30.4585 18.6739 30.9578 20.2166C31.01 20.388 31.0622 20.5594 31.1069 20.7382L28.8711 22.5492Z" fill="#2D3E50"/>
<path d="M40.9964 13.2858C41.0113 12.9653 40.7803 12.8163 40.4673 12.7716C40.4523 12.7716 40.43 12.7641 40.4151 12.7641C40.3853 12.7641 40.3555 12.7567 40.3331 12.7567C39.178 12.7119 38.4327 12.2722 38.1197 11.7506C37.762 11.1395 37.9334 9.96195 38.1719 9.13472C38.4849 8.82172 38.6339 8.38947 38.5669 7.94232C38.4923 7.43555 38.1644 7.02566 37.6875 6.83934L21.0534 0.437618C20.6137 0.26621 20.1293 0.32583 19.7492 0.594121L0.603655 13.9267C0.216123 14.195 -0.00745253 14.6421 0.00745253 15.1117C0.00745253 15.1489 0 15.1862 0 15.2234L0.104335 22.363C0.111788 22.6014 0.171408 22.7132 0.290649 22.7878C0.350269 22.8548 0.424794 22.907 0.506772 22.9443L19.4288 30.7098C19.5033 30.7396 19.5853 30.7545 19.6598 30.7545C19.7939 30.7545 19.9355 30.7098 20.0473 30.6204L28.0588 24.1367L27.8278 23.4436C27.8054 23.384 27.7383 23.1977 27.6042 22.9294L19.5554 29.4429L1.35636 21.968L1.27438 16.5276L18.4748 23.5926C18.6462 23.6597 18.8251 23.697 19.004 23.697C19.3095 23.697 19.6151 23.6001 19.861 23.4063L24.6902 19.6428C24.1611 19.3149 23.5947 19.054 22.9836 18.8752L22.6781 18.7858L22.3427 18.3237L20.6882 16.0209C20.4348 15.6631 20.3901 15.2085 20.569 14.8136C20.7479 14.4111 21.1205 14.1428 21.5602 14.0981L26.0391 13.651L26.2627 13.7478C26.4714 13.8373 26.9036 14.031 27.4477 14.344C28.1855 14.7688 28.8637 15.2607 29.4673 15.7973C29.4971 15.8196 29.5195 15.842 29.5493 15.8718L36.577 10.4017C36.4876 11.0575 36.5323 11.7729 36.9124 12.3989C37.3074 13.0697 37.993 13.5243 38.9544 13.7553L32.0235 19.367C32.0459 19.4267 32.0682 19.4937 32.0981 19.5534C32.2248 19.9036 32.3291 20.2688 32.4036 20.634L40.7728 13.8522C40.9368 13.718 41.0187 13.5094 40.9964 13.3081C40.9889 13.3007 40.9964 13.2932 40.9964 13.2858ZM34.3264 8.88879L31.5317 10.8264C31.3826 10.9308 31.1814 10.9457 30.9951 10.8712L17.6252 5.69165C17.2228 5.53515 17.1259 5.08055 17.4389 4.87187L20.2113 3.08327C20.3529 2.99384 20.5541 2.97893 20.7329 3.046L34.1177 8.07646C34.5201 8.22551 34.6319 8.67267 34.3264 8.88879Z" fill="#2D3E50"/>
<path d="M25.9497 16.6618C25.9497 17.094 25.5995 17.4368 25.1747 17.4368C24.7424 17.4368 24.3996 17.0866 24.3996 16.6618C24.3996 16.2295 24.7499 15.8867 25.1747 15.8867C25.5995 15.8793 25.9497 16.2295 25.9497 16.6618Z" fill="#2D3E50"/>
</svg>
