<svg width="379" height="188" viewBox="0 0 379 188" fill="none" xmlns="http://www.w3.org/2000/svg">
<rect x="0.5" y="14.496" width="378" height="173" rx="3.5" fill="#F4F0E6" stroke="#CBCACA"/>
<path d="M379 76.996H0V77.996H379V76.996Z" fill="#0F1010"/>
<path d="M379 92.996H0V93.996H379V92.996Z" fill="#0F1010"/>
<path d="M379 107.996H0V108.996H379V107.996Z" fill="#0F1010"/>
<path d="M379 123.996H0V124.996H379V123.996Z" fill="#0F1010"/>
<path d="M379 138.996H0V139.996H379V138.996Z" fill="#0F1010"/>
<path d="M379 154.996H0V155.996H379V154.996Z" fill="#0F1010"/>
<path d="M379 169.996H0V170.996H379V169.996Z" fill="#0F1010"/>
<path d="M14.8993 21.8967C14.7926 21.79 14.5792 21.5766 14.2591 21.4699C14.0457 21.3632 13.7256 21.3632 13.5122 21.3632L13.2988 21.2565L9.67095 30.7529C9.56425 31.073 9.88435 31.4998 10.3112 31.6065C10.8447 31.8199 11.2715 31.7132 11.3782 31.3931L15.1127 21.8967H14.8993Z" fill="url(#paint0_linear_207_3)"/>
<path d="M15.1127 21.2565L15.006 21.1498C14.8993 21.0431 14.7926 21.0431 14.6859 20.9364C14.5792 20.9364 14.5792 20.8297 14.4725 20.8297C14.2591 20.723 14.0457 20.723 13.939 20.723C13.8323 20.723 13.8323 20.723 13.7256 20.723L13.4055 20.6163L11.2715 26.3782C11.5916 26.6983 12.0184 27.0184 12.4452 27.3385C12.6586 27.5519 12.7653 27.6586 12.9787 27.6586L15.5395 21.3632L15.1127 21.2565Z" fill="url(#paint1_linear_207_3)"/>
<path d="M23.0086 23.604C23.0086 23.604 23.0086 23.4973 23.1153 23.4973C23.5421 22.4303 24.289 19.5494 21.9416 16.7751C21.1947 15.4947 19.5942 14.2143 17.4601 13.4674C15.3261 12.6138 13.2988 12.5071 11.9117 12.9339C8.28388 13.3607 6.89677 16.0282 6.46996 17.0952V17.2019C6.46996 17.3086 6.14986 18.2689 6.14986 18.2689C5.29626 21.0432 8.17718 24.5643 12.5519 26.2715C16.9266 27.9787 21.4081 27.2318 22.6885 24.5643C22.5818 24.5643 23.0086 23.7107 23.0086 23.604Z" fill="#36491A"/>
<path d="M23.0086 23.4973C23.0086 23.4973 23.0086 23.3906 23.1153 23.3906C23.5421 22.3236 24.7158 18.589 22.2616 15.8148C21.5147 14.5344 19.9142 13.254 17.7802 12.5071C15.6462 11.6535 13.6189 11.5468 12.1251 11.9736C8.60395 12.4004 6.89673 15.9215 6.46993 16.9885V17.0952C6.46993 17.2019 6.46993 17.2019 6.46993 17.2019C5.61632 19.9761 8.49725 23.4973 12.872 25.2045C17.2467 26.9117 21.8348 26.1648 23.0086 23.604C23.0086 23.604 23.0086 23.604 23.0086 23.4973Z" fill="#36491A"/>
<path d="M19.4874 13.4673C16.1797 11.2266 12.6586 10.7998 11.6982 12.507C10.7379 14.2143 12.4452 17.4153 15.5395 19.656C18.6338 21.79 21.9415 22.2168 23.1152 20.5096C24.3956 18.8024 22.7951 15.7081 19.4874 13.4673Z" fill="#135628"/>
<path d="M24.0755 6.74524C23.3286 5.99833 22.1549 5.25142 20.7678 4.71792C19.3807 4.18442 17.9936 3.97102 16.9266 3.97102L15.2194 3.33081L11.8049 13.4674C11.2714 14.9612 12.9787 16.9885 15.6462 17.9488C18.3137 19.0158 20.9812 18.589 21.6214 17.2019L25.8894 7.38544L24.0755 6.74524Z" fill="#135628"/>
<path d="M24.289 6.42511C23.5421 5.6782 22.3684 4.9313 20.9812 4.39779C19.5941 3.86429 18.207 3.65089 17.14 3.65089L15.3261 3.01068L11.9117 13.1473C11.3782 14.6411 13.1921 16.6684 15.8596 17.6287C18.5271 18.6957 21.1946 18.3756 21.8349 16.8818L26.1029 7.06531L24.289 6.42511Z" fill="#36491A"/>
<path d="M17.0333 3.65091C17.3534 3.65091 17.7802 3.65091 18.1003 3.65091L13.5122 16.455C12.872 15.9215 12.3385 15.388 12.1251 14.8545L16.073 3.33081L17.0333 3.65091Z" fill="#36491A"/>
<path d="M15.1127 3.43746L13.7256 7.70549C14.4725 9.0926 15.8596 10.5864 17.5668 11.7601C19.4874 13.0405 21.5147 13.7874 23.1153 13.7874L25.1426 9.0926C24.3957 7.91889 23.1153 6.63848 21.5147 5.57147C19.1673 4.07766 16.8199 3.33076 15.1127 3.43746Z" fill="#36491A"/>
<path d="M16.073 2.58384C17.5669 2.47714 19.3808 2.79724 21.3014 3.54415C23.222 4.29106 24.7158 5.25136 25.7828 6.31837L28.1302 7.17198L26.9565 9.7328C26.1029 11.6534 22.3684 11.9735 18.5272 10.4797C14.7926 8.98589 12.2318 6.21167 12.872 4.29106L13.7256 1.62354L16.073 2.58384Z" fill="#36491A"/>
<path d="M28.1302 7.17205C27.2766 9.09267 23.4354 9.41277 19.5941 7.91896C15.7529 6.42515 13.0854 3.65093 13.7256 1.73031C14.3658 -0.190303 18.207 -0.617106 22.2616 0.983406C26.3163 2.47722 28.9838 5.25144 28.1302 7.17205Z" fill="url(#paint2_radial_207_3)"/>
<path d="M27.7034 6.6385C26.8498 8.45241 23.3287 8.77252 19.8075 7.38541C16.1797 5.9983 13.7256 3.43748 14.3658 1.62356C15.006 -0.19035 18.5271 -0.510452 22.2617 0.983359C25.9962 2.47717 28.4503 4.93129 27.7034 6.6385Z" fill="#36491A"/>
<path d="M360.61 21.8967C360.503 21.79 360.29 21.5766 359.97 21.4699C359.756 21.3632 359.436 21.3632 359.223 21.3632L359.009 21.2565L355.382 30.7529C355.275 31.073 355.595 31.4998 356.022 31.6065C356.555 31.8199 356.982 31.7132 357.089 31.3931L360.823 21.8967H360.61Z" fill="url(#paint3_linear_207_3)"/>
<path d="M360.823 21.2565L360.717 21.1498C360.61 21.0431 360.503 21.0431 360.396 20.9364C360.29 20.9364 360.29 20.8297 360.183 20.8297C359.97 20.723 359.756 20.723 359.65 20.723C359.543 20.723 359.543 20.723 359.436 20.723L359.116 20.6163L356.982 26.3782C357.302 26.6983 357.729 27.0184 358.156 27.3385C358.369 27.5519 358.476 27.6586 358.689 27.6586L361.25 21.3632L360.823 21.2565Z" fill="url(#paint4_linear_207_3)"/>
<path d="M368.719 23.6039C368.719 23.6039 368.719 23.4972 368.826 23.4972C369.253 22.4302 370 19.5493 367.652 16.7751C366.905 15.4947 365.305 14.2143 363.171 13.4673C361.037 12.6137 359.009 12.507 357.622 12.9338C353.994 13.3606 352.607 16.0282 352.181 17.0952V17.2019C352.181 17.3086 351.86 18.2689 351.86 18.2689C351.007 21.0431 353.888 24.5642 358.262 26.2714C362.637 27.9787 367.119 27.2318 368.399 24.5642C368.292 24.5642 368.719 23.7106 368.719 23.6039Z" fill="#36491A"/>
<path d="M368.719 23.4972C368.719 23.4972 368.719 23.3905 368.826 23.3905C369.253 22.3235 370.426 18.589 367.972 15.8147C367.225 14.5343 365.625 13.2539 363.491 12.507C361.357 11.6534 359.329 11.5467 357.836 11.9735C354.315 12.4003 352.607 15.9214 352.181 16.9885V17.0952C352.181 17.2019 352.181 17.2019 352.181 17.2019C351.327 19.9761 354.208 23.4972 358.583 25.2044C362.957 26.9116 367.545 26.1647 368.719 23.6039C368.719 23.6039 368.719 23.6039 368.719 23.4972Z" fill="#36491A"/>
<path d="M365.198 13.4673C361.89 11.2266 358.369 10.7998 357.409 12.507C356.449 14.2143 358.156 17.4153 361.25 19.656C364.344 21.79 367.652 22.2168 368.826 20.5096C370.106 18.8024 368.506 15.7081 365.198 13.4673Z" fill="#135628"/>
<path d="M369.786 6.74524C369.039 5.99833 367.865 5.25142 366.478 4.71792C365.091 4.18442 363.704 3.97102 362.637 3.97102L360.93 3.33081L357.516 13.4674C356.982 14.9612 358.689 16.9885 361.357 17.9488C364.024 19.0158 366.692 18.589 367.332 17.2019L371.6 7.38544L369.786 6.74524Z" fill="#135628"/>
<path d="M370 6.42511C369.253 5.6782 368.079 4.9313 366.692 4.39779C365.305 3.86429 363.918 3.65089 362.851 3.65089L361.037 3.01068L357.622 13.1473C357.089 14.6411 358.903 16.6684 361.57 17.6287C364.238 18.6957 366.905 18.3756 367.545 16.8818L371.814 7.06531L370 6.42511Z" fill="#36491A"/>
<path d="M362.744 3.65091C363.064 3.65091 363.491 3.65091 363.811 3.65091L359.223 16.455C358.583 15.9215 358.049 15.388 357.836 14.8545L361.784 3.33081L362.744 3.65091Z" fill="#36491A"/>
<path d="M360.823 3.43746L359.436 7.70549C360.183 9.0926 361.57 10.5864 363.277 11.7601C365.198 13.0405 367.225 13.7874 368.826 13.7874L370.853 9.0926C370.106 7.91889 368.826 6.63848 367.225 5.57147C364.878 4.07766 362.53 3.33076 360.823 3.43746Z" fill="#36491A"/>
<path d="M361.784 2.58384C363.277 2.47714 365.091 2.79724 367.012 3.54415C368.933 4.29106 370.426 5.25136 371.493 6.31837L373.841 7.17198L372.667 9.7328C371.813 11.6534 368.079 11.9735 364.238 10.4797C360.503 8.98589 357.942 6.21167 358.583 4.29106L359.436 1.62354L361.784 2.58384Z" fill="#36491A"/>
<path d="M373.841 7.17199C372.987 9.0926 369.146 9.41271 365.305 7.9189C361.463 6.42508 358.796 3.65086 359.436 1.73025C360.076 -0.190364 363.918 -0.617167 367.972 0.983345C372.027 2.47716 374.694 5.25138 373.841 7.17199Z" fill="url(#paint5_radial_207_3)"/>
<path d="M373.414 6.6385C372.56 8.45241 369.039 8.77252 365.518 7.38541C361.89 5.9983 359.436 3.43748 360.076 1.62356C360.717 -0.19035 364.238 -0.510452 367.972 0.983359C371.707 2.47717 374.161 4.93129 373.414 6.6385Z" fill="#36491A"/>
<defs>
<linearGradient id="paint0_linear_207_3" x1="13.2982" y1="26.9662" x2="11.3006" y2="26.2006" gradientUnits="userSpaceOnUse">
<stop offset="0.1128" stop-color="#DDDDDF"/>
<stop offset="0.1338" stop-color="#D0D1D2"/>
<stop offset="0.1951" stop-color="#AEB2B3"/>
<stop offset="0.2537" stop-color="#969B9C"/>
<stop offset="0.3078" stop-color="#888E8E"/>
<stop offset="0.3533" stop-color="#838989"/>
<stop offset="0.4492" stop-color="#868C8C"/>
<stop offset="0.5265" stop-color="#909595"/>
<stop offset="0.5973" stop-color="#A1A5A5"/>
<stop offset="0.6638" stop-color="#B9BABA"/>
<stop offset="0.6976" stop-color="#C8C8C8"/>
<stop offset="0.8821" stop-color="#E1E1E1"/>
</linearGradient>
<linearGradient id="paint1_linear_207_3" x1="14.2599" y1="24.4815" x2="12.2507" y2="23.7114" gradientUnits="userSpaceOnUse">
<stop offset="0.1128" stop-color="#BCBCBE"/>
<stop offset="0.1338" stop-color="#AFB0B1"/>
<stop offset="0.1951" stop-color="#8D9192"/>
<stop offset="0.2537" stop-color="#767A7B"/>
<stop offset="0.3078" stop-color="#676D6D"/>
<stop offset="0.3533" stop-color="#626868"/>
<stop offset="0.438" stop-color="#656B6B"/>
<stop offset="0.5063" stop-color="#6F7474"/>
<stop offset="0.5688" stop-color="#808484"/>
<stop offset="0.6279" stop-color="#989B9B"/>
<stop offset="0.6841" stop-color="#B6B7B7"/>
<stop offset="0.6976" stop-color="#BFBFBF"/>
<stop offset="0.8821" stop-color="#BDBDBD"/>
</linearGradient>
<radialGradient id="paint2_radial_207_3" cx="0" cy="0" r="1" gradientUnits="userSpaceOnUse" gradientTransform="translate(15.5157 20.2028) scale(0.0622972)">
<stop stop-color="white"/>
<stop offset="0.00738025" stop-color="#F6F9F7"/>
<stop offset="0.0476763" stop-color="#C8DACE"/>
<stop offset="0.0930898" stop-color="#9DBDA7"/>
<stop offset="0.1419" stop-color="#77A385"/>
<stop offset="0.195" stop-color="#578D68"/>
<stop offset="0.2537" stop-color="#3B7B4F"/>
<stop offset="0.32" stop-color="#256C3C"/>
<stop offset="0.3974" stop-color="#14612C"/>
<stop offset="0.4931" stop-color="#095922"/>
<stop offset="0.6274" stop-color="#02541C"/>
<stop offset="1" stop-color="#00531A"/>
</radialGradient>
<linearGradient id="paint3_linear_207_3" x1="359.009" y1="26.9662" x2="357.011" y2="26.2006" gradientUnits="userSpaceOnUse">
<stop offset="0.1128" stop-color="#DDDDDF"/>
<stop offset="0.1338" stop-color="#D0D1D2"/>
<stop offset="0.1951" stop-color="#AEB2B3"/>
<stop offset="0.2537" stop-color="#969B9C"/>
<stop offset="0.3078" stop-color="#888E8E"/>
<stop offset="0.3533" stop-color="#838989"/>
<stop offset="0.4492" stop-color="#868C8C"/>
<stop offset="0.5265" stop-color="#909595"/>
<stop offset="0.5973" stop-color="#A1A5A5"/>
<stop offset="0.6638" stop-color="#B9BABA"/>
<stop offset="0.6976" stop-color="#C8C8C8"/>
<stop offset="0.8821" stop-color="#E1E1E1"/>
</linearGradient>
<linearGradient id="paint4_linear_207_3" x1="359.97" y1="24.4815" x2="357.961" y2="23.7114" gradientUnits="userSpaceOnUse">
<stop offset="0.1128" stop-color="#BCBCBE"/>
<stop offset="0.1338" stop-color="#AFB0B1"/>
<stop offset="0.1951" stop-color="#8D9192"/>
<stop offset="0.2537" stop-color="#767A7B"/>
<stop offset="0.3078" stop-color="#676D6D"/>
<stop offset="0.3533" stop-color="#626868"/>
<stop offset="0.438" stop-color="#656B6B"/>
<stop offset="0.5063" stop-color="#6F7474"/>
<stop offset="0.5688" stop-color="#808484"/>
<stop offset="0.6279" stop-color="#989B9B"/>
<stop offset="0.6841" stop-color="#B6B7B7"/>
<stop offset="0.6976" stop-color="#BFBFBF"/>
<stop offset="0.8821" stop-color="#BDBDBD"/>
</linearGradient>
<radialGradient id="paint5_radial_207_3" cx="0" cy="0" r="1" gradientUnits="userSpaceOnUse" gradientTransform="translate(361.226 20.2027) scale(0.0622972)">
<stop stop-color="white"/>
<stop offset="0.00738025" stop-color="#F6F9F7"/>
<stop offset="0.0476763" stop-color="#C8DACE"/>
<stop offset="0.0930898" stop-color="#9DBDA7"/>
<stop offset="0.1419" stop-color="#77A385"/>
<stop offset="0.195" stop-color="#578D68"/>
<stop offset="0.2537" stop-color="#3B7B4F"/>
<stop offset="0.32" stop-color="#256C3C"/>
<stop offset="0.3974" stop-color="#14612C"/>
<stop offset="0.4931" stop-color="#095922"/>
<stop offset="0.6274" stop-color="#02541C"/>
<stop offset="1" stop-color="#00531A"/>
</radialGradient>
</defs>
</svg>
