<svg width="200" height="85" viewBox="0 0 200 85" fill="none" xmlns="http://www.w3.org/2000/svg">
<g clip-path="url(#clip0_2_9911)">
<path d="M11.7272 83.4463C27.406 82.2725 23.327 83.1202 37.8585 83.7723C52.3901 84.4244 57.1064 83.7723 59.4009 83.4463C61.6954 83.1202 92.543 84.62 101.211 85.2069C109.879 85.7937 132.569 83.4463 132.569 83.4463C132.569 83.4463 157.043 85.2069 166.348 85.2069C175.653 85.2069 177.948 83.1202 185.596 83.1202C189.293 83.1202 195.156 82.4029 200.128 81.6857V30.1063H0V84.4896C2.9318 84.1636 6.62843 83.8375 11.7272 83.4463Z" fill="#FADBAC"/>
<g clip-path="url(#clip1_2_9911)">
<path d="M102.4 31.6C102.3 31.5 102.1 31.3 101.8 31.2C101.6 31.1 101.3 31.1 101.1 31.1L100.9 31L97.5 39.9C97.4 40.2 97.7 40.6 98.1 40.7C98.6 40.9 99 40.8 99.1 40.5L102.6 31.6H102.4Z" fill="url(#paint0_linear_2_9911)"/>
<path d="M102.6 31L102.5 30.9C102.4 30.8 102.3 30.8 102.2 30.7C102.1 30.7 102.1 30.6 102 30.6C101.8 30.5 101.6 30.5 101.5 30.5C101.4 30.5 101.4 30.5 101.3 30.5L101 30.4L99 35.8C99.3 36.1 99.7 36.4 100.1 36.7C100.3 36.9 100.4 37 100.6 37L103 31.1L102.6 31Z" fill="url(#paint1_linear_2_9911)"/>
<path d="M110 33.2C110 33.2 110 33.1 110.1 33.1C110.5 32.1 111.2 29.4 109 26.8C108.3 25.6 106.8 24.4 104.8 23.7C102.8 22.9 100.9 22.8 99.6 23.2C96.2 23.6 94.9 26.1 94.5 27.1V27.2C94.5 27.3 94.2 28.2 94.2 28.2C93.4 30.8 96.1 34.1 100.2 35.7C104.3 37.3 108.5 36.6 109.7 34.1C109.6 34.1 110 33.3 110 33.2Z" fill="#36491A"/>
<path d="M110 33.1C110 33.1 110 33 110.1 33C110.5 32 111.6 28.5 109.3 25.9C108.6 24.7 107.1 23.5 105.1 22.8C103.1 22 101.2 21.9 99.8 22.3C96.5 22.7 94.9 26 94.5 27V27.1C94.5 27.2 94.5 27.2 94.5 27.2C93.7 29.8 96.4 33.1 100.5 34.7C104.6 36.3 108.9 35.6 110 33.2C110 33.2 110 33.2 110 33.1Z" fill="#36491A"/>
<path d="M106.7 23.7C103.6 21.6 100.3 21.2 99.4 22.8C98.5 24.4 100.1 27.4 103 29.5C105.9 31.5 109 31.9 110.1 30.3C111.3 28.7 109.8 25.8 106.7 23.7Z" fill="#135628"/>
<path d="M111 17.4C110.3 16.7 109.2 16 107.9 15.5C106.6 15 105.3 14.8 104.3 14.8L102.7 14.2L99.5 23.7C99 25.1 100.6 27 103.1 27.9C105.6 28.9 108.1 28.5 108.7 27.2L112.7 18L111 17.4Z" fill="#135628"/>
<path d="M111.2 17.1C110.5 16.4 109.4 15.7 108.1 15.2C106.8 14.7 105.5 14.5 104.5 14.5L102.8 13.9L99.6 23.4C99.1 24.8 100.8 26.7 103.3 27.6C105.8 28.6 108.3 28.3 108.9 26.9L112.9 17.7L111.2 17.1Z" fill="#36491A"/>
<path d="M104.4 14.5C104.7 14.5 105.1 14.5 105.4 14.5L101.1 26.5C100.5 26 100 25.5 99.8 25L103.5 14.2L104.4 14.5Z" fill="#36491A"/>
<path d="M102.6 14.3L101.3 18.3C102 19.6 103.3 21 104.9 22.1C106.7 23.3 108.6 24 110.1 24L112 19.6C111.3 18.5 110.1 17.3 108.6 16.3C106.4 14.9 104.2 14.2 102.6 14.3Z" fill="#36491A"/>
<path d="M103.5 13.5C104.9 13.4 106.6 13.7 108.4 14.4C110.2 15.1 111.6 16 112.6 17L114.8 17.8L113.7 20.2C112.9 22 109.4 22.3 105.8 20.9C102.3 19.5 99.9 16.9 100.5 15.1L101.3 12.6L103.5 13.5Z" fill="#36491A"/>
<path d="M114.8 17.8C114 19.6 110.4 19.9 106.8 18.5C103.2 17.1 100.7 14.5 101.3 12.7C101.9 10.9 105.5 10.5 109.3 12C113.1 13.4 115.6 16 114.8 17.8Z" fill="url(#paint2_radial_2_9911)"/>
<path d="M114.4 17.3C113.6 19 110.3 19.3 107 18C103.6 16.7 101.3 14.3 101.9 12.6C102.5 10.9 105.8 10.6 109.3 12C112.8 13.4 115.1 15.7 114.4 17.3Z" fill="#36491A"/>
</g>
</g>
<defs>
<linearGradient id="paint0_linear_2_9911" x1="100.899" y1="36.3511" x2="99.0274" y2="35.6335" gradientUnits="userSpaceOnUse">
<stop offset="0.1128" stop-color="#DDDDDF"/>
<stop offset="0.1338" stop-color="#D0D1D2"/>
<stop offset="0.1951" stop-color="#AEB2B3"/>
<stop offset="0.2537" stop-color="#969B9C"/>
<stop offset="0.3078" stop-color="#888E8E"/>
<stop offset="0.3533" stop-color="#838989"/>
<stop offset="0.4492" stop-color="#868C8C"/>
<stop offset="0.5265" stop-color="#909595"/>
<stop offset="0.5973" stop-color="#A1A5A5"/>
<stop offset="0.6638" stop-color="#B9BABA"/>
<stop offset="0.6976" stop-color="#C8C8C8"/>
<stop offset="0.8821" stop-color="#E1E1E1"/>
</linearGradient>
<linearGradient id="paint1_linear_2_9911" x1="101.801" y1="34.0224" x2="99.9177" y2="33.3007" gradientUnits="userSpaceOnUse">
<stop offset="0.1128" stop-color="#BCBCBE"/>
<stop offset="0.1338" stop-color="#AFB0B1"/>
<stop offset="0.1951" stop-color="#8D9192"/>
<stop offset="0.2537" stop-color="#767A7B"/>
<stop offset="0.3078" stop-color="#676D6D"/>
<stop offset="0.3533" stop-color="#626868"/>
<stop offset="0.438" stop-color="#656B6B"/>
<stop offset="0.5063" stop-color="#6F7474"/>
<stop offset="0.5688" stop-color="#808484"/>
<stop offset="0.6279" stop-color="#989B9B"/>
<stop offset="0.6841" stop-color="#B6B7B7"/>
<stop offset="0.6976" stop-color="#BFBFBF"/>
<stop offset="0.8821" stop-color="#BDBDBD"/>
</linearGradient>
<radialGradient id="paint2_radial_2_9911" cx="0" cy="0" r="1" gradientUnits="userSpaceOnUse" gradientTransform="translate(102.978 30.0124) scale(0.058385)">
<stop stop-color="white"/>
<stop offset="0.00738025" stop-color="#F6F9F7"/>
<stop offset="0.0476763" stop-color="#C8DACE"/>
<stop offset="0.0930898" stop-color="#9DBDA7"/>
<stop offset="0.1419" stop-color="#77A385"/>
<stop offset="0.195" stop-color="#578D68"/>
<stop offset="0.2537" stop-color="#3B7B4F"/>
<stop offset="0.32" stop-color="#256C3C"/>
<stop offset="0.3974" stop-color="#14612C"/>
<stop offset="0.4931" stop-color="#095922"/>
<stop offset="0.6274" stop-color="#02541C"/>
<stop offset="1" stop-color="#00531A"/>
</radialGradient>
<clipPath id="clip0_2_9911">
<rect width="200" height="85" fill="white"/>
</clipPath>
<clipPath id="clip1_2_9911">
<rect width="20.9" height="29.9" fill="white" transform="translate(94 11)"/>
</clipPath>
</defs>
</svg>
