<svg width="196" height="198" viewBox="0 0 196 198" fill="none" xmlns="http://www.w3.org/2000/svg">
<path d="M97.9948 197.157C152.116 197.157 195.99 153.022 195.99 98.5786C195.99 44.1351 152.116 0 97.9948 0C43.8738 0 0 44.1351 0 98.5786C0 153.022 43.8738 197.157 97.9948 197.157Z" fill="#47B39E"/>
<path d="M108.681 91.6434C109.813 92.2378 110.355 93.5753 109.961 94.8137C107.302 102.74 101.737 108.04 96.2713 107.099C89.8204 106.009 86.0286 96.6961 87.8014 86.2438C88.2446 83.5193 89.0817 80.9434 90.1158 78.7142C90.953 76.8814 93.4644 76.6832 94.6462 78.3179C98.5365 83.767 102.919 88.5225 108.681 91.6434Z" fill="white"/>
<path d="M46.4859 81.0424C45.2056 81.2406 44.27 82.3304 44.2208 83.5688C44.1223 91.9405 47.6678 98.7767 53.1338 99.7179C59.5847 100.808 66.2327 93.278 67.9562 82.8257C68.3994 80.1012 68.4979 77.4262 68.2516 74.9494C68.0547 72.9184 65.7402 71.9276 64.1152 73.1165C58.6491 76.9804 52.9861 80.0517 46.4859 81.0424Z" fill="white"/>
<path d="M54.3649 97.8355C50.5732 97.8355 50.5732 91.8911 54.3649 91.8911C58.1567 91.8911 58.2059 97.8355 54.3649 97.8355Z" fill="#363636"/>
<path d="M94.8924 102.888C91.1006 102.888 91.1006 96.9438 94.8924 96.9438C98.6842 96.9438 98.7334 102.888 94.8924 102.888Z" fill="#363636"/>
<path d="M35.997 143.707C40.6259 144.301 47.0768 144.598 53.8232 146.184C64.1151 148.611 76.4753 156.388 84.7974 160.846C87.0626 162.035 88.9831 163.026 90.5589 163.571C92.184 164.116 93.3166 164.265 93.9075 163.769C97.2068 160.946 94.5969 156.041 94.5969 156.041C94.5969 156.041 90.362 122.901 73.4221 119.087C56.4823 115.272 39.3456 125.477 31.3681 135.682C30.0878 137.316 29.3984 138.604 29.1521 139.645C28.6105 142.27 31.4173 143.112 35.997 143.707Z" fill="#363636"/>
<path d="M35.9971 143.707C40.626 144.301 47.0769 144.598 53.8233 146.184C64.1152 148.611 76.4753 156.388 84.7975 160.846C82.4831 152.326 79.4792 139.447 73.176 137.069C68.4979 135.285 63.4258 138.258 63.4258 138.406C63.278 138.109 60.8651 132.957 53.577 131.719C49.2929 130.976 43.2851 138.555 35.9971 143.707Z" fill="#D55868"/>
<path d="M93.7107 99.5693C93.7599 99.5693 93.8092 99.6188 93.8092 99.6188C93.6614 99.6188 93.563 99.5693 93.4152 99.5693C93.4645 99.5693 93.5137 99.5693 93.563 99.5693C93.4152 99.5693 93.3167 99.6188 93.169 99.6188C93.2183 99.6188 93.2675 99.6188 93.2675 99.5693C93.169 99.6188 93.0213 99.6684 92.9228 99.7179C93.0213 99.6684 93.0213 99.6683 92.8735 99.7674C92.775 99.817 92.6766 99.916 92.6273 100.065C92.5781 100.164 92.5288 100.312 92.4796 100.411V100.362C92.6273 100.065 92.7258 99.8169 93.0213 99.5693C93.2675 99.3711 93.6122 99.2225 93.9077 99.2721C94.1539 99.2721 94.4001 99.3711 94.6463 99.4702C94.9418 99.6188 95.2865 100.015 95.3357 100.362C95.3357 100.51 95.385 100.709 95.385 100.857C95.4342 101.204 95.4342 101.501 95.2865 101.848C95.188 102.096 94.9418 102.442 94.6956 102.541C94.3016 102.69 94.0061 102.789 93.563 102.74C93.2675 102.69 93.0213 102.641 92.8243 102.442C92.5781 102.244 92.3319 102.046 92.1841 101.749C91.9379 101.303 91.9379 100.907 92.0364 100.411C92.0856 100.065 92.4303 99.6683 92.7258 99.5197C93.0213 99.3216 93.5137 99.272 93.8584 99.3711C94.2031 99.4702 94.5478 99.7179 94.7448 100.065C94.9418 100.461 94.9418 100.808 94.8925 101.204V101.254C94.8925 101.105 94.9418 101.006 94.9418 100.857V100.907C94.9418 100.758 94.8925 100.659 94.8925 100.51V100.56C94.8433 100.461 94.794 100.312 94.7448 100.213C94.794 100.362 94.7448 100.312 94.5478 100.065C94.3016 99.8665 94.2524 99.8169 94.4001 99.916C94.3016 99.8665 94.1539 99.817 94.0554 99.7674C94.1046 99.7674 94.1046 99.8169 94.1539 99.8169C94.0062 99.8169 93.9076 99.7674 93.7599 99.7674H93.8092C93.6614 99.7674 93.563 99.8169 93.4152 99.8169H93.4645C93.366 99.8665 93.2182 99.916 93.1197 99.9656H93.169C92.9228 100.51 92.7258 101.105 92.4796 101.65C92.4796 101.501 92.4304 101.303 92.4304 101.154C93.366 101.154 94.3509 101.154 95.2865 101.154C95.0895 101.65 94.8433 102.046 94.3508 102.294C93.9076 102.541 93.3167 102.641 92.8243 102.442C92.0856 102.195 91.5439 101.402 91.7902 100.61C92.1349 99.8665 92.9228 99.3216 93.7107 99.5693Z" fill="#363636"/>
<path d="M54.5619 94.9623C54.6604 95.1109 54.8081 95.2596 54.9066 95.4082C55.2513 95.854 55.4483 96.2998 55.3005 96.8447C55.1528 97.3401 54.7589 97.7364 54.2664 97.885C53.2323 98.1822 52.2967 97.5383 51.952 96.5971C51.6073 95.6559 52.1982 94.467 53.1831 94.2193C54.1187 93.9716 55.1036 94.467 55.4975 95.3586C55.7437 95.9035 55.6945 96.4485 55.4483 96.9934C55.202 97.4888 54.6604 97.7364 54.1679 97.786C54.0202 97.786 53.8725 97.786 53.774 97.8355C52.9861 97.885 52.2474 97.0924 52.2967 96.3494C52.3459 95.5073 52.9368 94.9128 53.774 94.8633C53.9217 94.8633 54.0694 94.8633 54.1679 94.8137C53.7247 95.0614 53.3308 95.3091 52.8876 95.5568V95.5073C52.8383 95.6063 52.7891 95.7549 52.7399 95.854C52.7399 95.8045 52.7399 95.8045 52.7399 95.755C52.7399 95.9036 52.6906 96.0026 52.6906 96.1512V96.1017C52.6906 96.2503 52.7399 96.3494 52.7399 96.498C52.7399 96.4485 52.7399 96.3989 52.6906 96.3494C52.7399 96.4485 52.7891 96.597 52.8383 96.6961C52.7399 96.498 53.0846 96.9934 52.9368 96.8447C52.9861 96.8943 53.2815 97.0429 53.0353 96.9438C53.1338 96.9933 53.2815 97.0429 53.38 97.0924C53.3308 97.0924 53.3308 97.0924 53.2815 97.0429C53.4293 97.0429 53.5278 97.0924 53.6755 97.0924C53.6262 97.0924 53.6262 97.0924 53.577 97.0924C53.7247 97.0924 53.8232 97.0429 53.9709 97.0429C53.9217 97.0429 53.9217 97.0429 53.8724 97.0429C53.9709 96.9934 54.1187 96.9438 54.2172 96.8943C54.0694 96.9438 54.1187 96.8943 54.3649 96.6961C54.5619 96.4484 54.6111 96.3989 54.5619 96.5475C54.6111 96.4485 54.6604 96.2998 54.7096 96.2007C54.7096 96.2503 54.7096 96.2503 54.6604 96.2999C54.6604 96.1512 54.7096 96.0521 54.7096 95.9035C54.7096 95.9531 54.7096 96.0026 54.7096 96.0522C54.7096 95.9036 54.6604 95.8045 54.6604 95.6558C54.6604 95.7054 54.7096 95.7549 54.7096 95.8045C54.6604 95.7054 54.6111 95.5568 54.5619 95.4577C54.6604 95.6063 54.7096 95.5568 54.4634 95.3091C54.4141 95.2596 54.1187 95.1109 54.3157 95.1605C54.2172 95.1109 54.0694 95.0614 53.9709 95.0119C54.0202 95.0119 54.0202 95.0119 54.0694 95.0119C53.9217 95.0119 53.8232 94.9623 53.6755 94.9623H53.7247C53.577 94.9623 53.4785 95.0119 53.3308 95.0119C53.38 95.0119 53.38 95.0119 53.4293 95.0119C53.2323 95.854 52.9861 96.6466 52.7891 97.4888C52.6906 97.3401 52.5429 97.1915 52.4444 97.0429C52.1982 96.6962 52.0012 96.3989 52.0012 96.0026C52.0012 95.6559 52.1489 95.21 52.4444 94.9623C52.7399 94.7146 53.0846 94.5165 53.4785 94.5165C53.8725 94.5165 54.3157 94.6651 54.5619 94.9623Z" fill="#363636"/>
<path d="M50.9457 51.215C53.8019 52.4039 56.9535 51.3141 59.7604 50.472C62.7642 49.5803 65.7188 48.4409 68.5257 47.0539C71.3818 45.6669 73.844 49.9271 70.9879 51.3141C67.4916 52.9984 63.8968 54.4349 60.1543 55.4752C56.7565 56.4164 53.014 57.4071 49.6161 55.9706C46.76 54.8312 48.0404 50.0261 50.9457 51.215Z" fill="#363636"/>
<path d="M101.273 48.2428C106.148 54.6331 113.978 57.8034 121.118 60.7261C124.023 61.915 122.743 66.7201 119.789 65.4817C111.22 62.0141 102.75 58.2493 96.9887 50.7197C95.1175 48.2428 99.4017 45.766 101.273 48.2428Z" fill="#363636"/>
</svg>
