<svg width="71" height="78" viewBox="0 0 71 78" fill="none" xmlns="http://www.w3.org/2000/svg">
<path d="M1.68848 75.4547V10.7661H69.8094V72.3248C68.9998 72.7378 68.134 73.1416 67.3187 73.447C66.4519 73.7716 65.6659 73.9756 65.0723 73.9756C63.7651 73.9756 62.8813 74.5775 62.0208 75.1635C61.9696 75.1984 61.9184 75.2333 61.8672 75.268C60.9545 75.8862 60.0095 76.4742 58.49 76.4742C56.9238 76.4742 54.0582 75.9456 51.5596 75.409C50.3157 75.1418 49.1711 74.8746 48.3374 74.6741C47.9207 74.5739 47.5817 74.4904 47.3471 74.432C47.2298 74.4028 47.1385 74.3799 47.0766 74.3642L47.0063 74.3464L46.9885 74.3419L46.984 74.3407L46.9829 74.3405L46.9826 74.3404L46.9206 74.5826M46.9206 74.5826L46.9826 74.3404L46.9073 74.3211L46.8345 74.3479L46.9206 74.5826ZM46.9206 74.5826L46.8344 74.3479L46.8342 74.348L46.8332 74.3483L46.8292 74.3498L46.8128 74.3558L46.748 74.3792C46.6908 74.3997 46.6064 74.4299 46.4977 74.468C46.2804 74.5442 45.9662 74.6525 45.5798 74.7802C44.8067 75.0358 43.7455 75.369 42.5919 75.6797C41.4375 75.9907 40.1953 76.278 39.0591 76.4434C37.9154 76.6098 36.9081 76.648 36.2092 76.4811C34.7046 76.1218 31.3072 75.4959 28.1901 75.0049C26.6306 74.7592 25.137 74.5467 23.9816 74.4178C23.4045 74.3534 22.9079 74.3095 22.5282 74.2931C22.3387 74.2849 22.1739 74.2834 22.0407 74.2903C21.9184 74.2967 21.7881 74.3112 21.6916 74.3543L21.6911 74.3545L21.6894 74.3552C21.3039 74.5283 20.7321 74.7849 19.6468 74.9144C18.5532 75.0449 16.9305 75.047 14.4512 74.692C13.217 74.5152 12.3801 74.3167 11.7348 74.1406C11.5346 74.086 11.349 74.0323 11.1736 73.9816C10.7928 73.8714 10.4594 73.775 10.1264 73.7123C9.11831 73.5223 8.07169 73.6269 5.37874 74.3409M5.37874 74.3409C5.37893 74.3409 5.37911 74.3408 5.3793 74.3408L5.44273 74.5826L5.37866 74.3409C5.37869 74.3409 5.37871 74.3409 5.37874 74.3409Z" fill="url(#paint0_radial_218_433)" stroke="#847F7F" stroke-width="0.5"/>
<path d="M36.9883 13.7224C36.9309 13.6555 36.816 13.5218 36.6437 13.4549C36.5288 13.388 36.3564 13.388 36.2416 13.388L36.1267 13.3212L34.1735 19.2723C34.1161 19.4729 34.2884 19.7404 34.5182 19.8073C34.8054 19.941 35.0352 19.8741 35.0927 19.6735L37.1032 13.7224H36.9883Z" fill="url(#paint1_linear_218_433)"/>
<path d="M37.1032 13.3211L37.0458 13.2543C36.9883 13.1874 36.9309 13.1874 36.8734 13.1205C36.816 13.1205 36.816 13.0537 36.7586 13.0537C36.6437 12.9868 36.5288 12.9868 36.4713 12.9868C36.4139 12.9868 36.4139 12.9868 36.3564 12.9868L36.1841 12.9199L35.0352 16.5307C35.2076 16.7313 35.4373 16.9319 35.6671 17.1325C35.782 17.2663 35.8394 17.3331 35.9543 17.3331L37.333 13.388L37.1032 13.3211Z" fill="url(#paint2_linear_218_433)"/>
<path d="M41.3541 14.7921C41.3541 14.7921 41.3541 14.7253 41.4116 14.7253C41.6414 14.0566 42.0435 12.2512 40.7797 10.5127C40.3776 9.71025 39.5159 8.90785 38.367 8.43978C37.2181 7.90485 36.1267 7.83798 35.3799 8.10545C33.4268 8.37291 32.68 10.0446 32.4502 10.7133V10.7801C32.4502 10.847 32.2779 11.4488 32.2779 11.4488C31.8183 13.1873 33.3693 15.394 35.7246 16.4638C38.0798 17.5337 40.4925 17.0656 41.1818 15.394C41.1244 15.394 41.3541 14.859 41.3541 14.7921Z" fill="#242521"/>
<path d="M41.3541 14.7253C41.3541 14.7253 41.3541 14.6584 41.4115 14.6584C41.6413 13.9897 42.2732 11.6494 40.952 9.91085C40.5499 9.10845 39.6882 8.30604 38.5393 7.83798C37.3904 7.30304 36.299 7.23617 35.4948 7.50364C33.5991 7.77111 32.68 9.97772 32.4502 10.6464V10.7133C32.4502 10.7801 32.4502 10.7801 32.4502 10.7801C31.9906 12.5187 33.5416 14.7253 35.8969 15.7951C38.2521 16.865 40.7222 16.397 41.3541 14.7921C41.3541 14.7921 41.3541 14.7921 41.3541 14.7253Z" fill="#242521"/>
<path d="M39.4584 8.4398C37.6777 7.03559 35.782 6.76812 35.265 7.83799C34.748 8.90787 35.6671 10.9139 37.333 12.3181C38.9989 13.6554 40.7797 13.9229 41.4116 12.853C42.1009 11.7831 41.2392 9.844 39.4584 8.4398Z" fill="#3B3D37"/>
<path d="M41.9286 4.22702C41.5265 3.75896 40.8946 3.29089 40.1478 2.95655C39.401 2.62222 38.6543 2.48848 38.0798 2.48848L37.1607 2.08728L35.3225 8.43965C35.0353 9.37578 35.9544 10.6463 37.3905 11.2481C38.8266 11.9167 40.2627 11.6493 40.6074 10.78L42.9052 4.62823L41.9286 4.22702Z" fill="#242521"/>
<path d="M38.1372 2.28788C38.3095 2.28788 38.5393 2.28788 38.7116 2.28788L36.2415 10.3119C35.8969 9.97759 35.6096 9.64325 35.4948 9.30892L37.6202 2.08728L38.1372 2.28788Z" fill="#242521"/>
<path d="M37.1032 2.15436L36.3564 4.82904C36.7586 5.69831 37.5053 6.63445 38.4245 7.36998C39.4585 8.17239 40.5499 8.64046 41.4116 8.64046L42.503 5.69831C42.1009 4.96277 41.4116 4.16037 40.5499 3.4917C39.2861 2.55556 38.0223 2.08749 37.1032 2.15436Z" fill="#242521"/>
<mask id="path-10-inside-1_218_433" fill="white">
<path d="M37.6203 1.61926C38.4245 1.55239 39.4011 1.75299 40.4351 2.22106C41.4691 2.68913 42.2733 3.29093 42.8478 3.9596L44.1115 4.49454L43.4796 6.09935C43.0201 7.30295 41.0095 7.50356 38.9415 6.56742C36.931 5.63128 35.5523 3.89274 35.897 2.68913L36.3565 1.01746L37.6203 1.61926Z"/>
</mask>
<path d="M37.6203 1.61926C38.4245 1.55239 39.4011 1.75299 40.4351 2.22106C41.4691 2.68913 42.2733 3.29093 42.8478 3.9596L44.1115 4.49454L43.4796 6.09935C43.0201 7.30295 41.0095 7.50356 38.9415 6.56742C36.931 5.63128 35.5523 3.89274 35.897 2.68913L36.3565 1.01746L37.6203 1.61926Z" fill="#242521"/>
<path d="M37.6203 1.61926L37.5986 1.66485L37.6109 1.67071L37.6245 1.66958L37.6203 1.61926ZM42.8478 3.9596L42.8095 3.99251L42.8172 4.00149L42.8281 4.00611L42.8478 3.9596ZM44.1115 4.49454L44.1585 4.51304L44.1766 4.46723L44.1312 4.44804L44.1115 4.49454ZM43.4796 6.09935L43.4327 6.08085L43.4325 6.08134L43.4796 6.09935ZM38.9415 6.56742L38.9202 6.6132L38.9207 6.61342L38.9415 6.56742ZM35.897 2.68913L35.9455 2.70303L35.9457 2.70252L35.897 2.68913ZM36.3565 1.01746L36.3782 0.971866L36.3238 0.945951L36.3078 1.00407L36.3565 1.01746ZM37.6245 1.66958C38.4177 1.60363 39.3855 1.80139 40.4143 2.26706L40.4559 2.17506C39.4166 1.7046 38.4313 1.50116 37.6161 1.56894L37.6245 1.66958ZM40.4143 2.26706C41.4425 2.73251 42.2404 3.33014 42.8095 3.99251L42.8861 3.9267C42.3062 3.25173 41.4957 2.64575 40.4559 2.17506L40.4143 2.26706ZM42.8281 4.00611L44.0919 4.54104L44.1312 4.44804L42.8674 3.9131L42.8281 4.00611ZM44.0646 4.47604L43.4327 6.08085L43.5266 6.11785L44.1585 4.51304L44.0646 4.47604ZM43.4325 6.08134C43.2123 6.65806 42.6175 7.00297 41.8086 7.08555C41.0008 7.16803 39.9902 6.98669 38.9624 6.52142L38.9207 6.61342C39.9609 7.08428 40.9895 7.27071 41.8189 7.18602C42.6472 7.10144 43.2875 6.74424 43.5268 6.11736L43.4325 6.08134ZM38.9628 6.52164C37.9639 6.05652 37.1232 5.39253 36.5757 4.69733C36.0267 4.00012 35.7798 3.28162 35.9455 2.70303L35.8484 2.67523C35.6694 3.30024 35.9396 4.05282 36.4964 4.75982C37.0547 5.46882 37.9086 6.14218 38.9202 6.61319L38.9628 6.52164ZM35.9457 2.70252L36.4052 1.03084L36.3078 1.00407L35.8483 2.67575L35.9457 2.70252ZM36.3348 1.06305L37.5986 1.66485L37.642 1.57367L36.3782 0.971866L36.3348 1.06305Z" fill="black" mask="url(#path-10-inside-1_218_433)"/>
<path d="M44.1116 4.49453C43.652 5.69813 41.584 5.89873 39.516 4.9626C37.448 4.02646 36.0119 2.28792 36.3565 1.08431C36.7012 -0.119297 38.7692 -0.386765 40.9521 0.61624C43.135 1.55238 44.5711 3.29092 44.1116 4.49453Z" fill="url(#paint3_radial_218_433)"/>
<path d="M43.8817 4.1603C43.4222 5.29704 41.5265 5.49764 39.6308 4.62837C37.6777 3.7591 36.3565 2.15429 36.7012 1.01755C37.0458 -0.11919 38.9415 -0.319791 40.9521 0.616347C42.9626 1.55249 44.2839 3.09043 43.8817 4.1603Z" fill="#242521"/>
<defs>
<radialGradient id="paint0_radial_218_433" cx="0" cy="0" r="1" gradientUnits="userSpaceOnUse" gradientTransform="translate(36.3731 19.8766) scale(38.5053 77.0966)">
<stop stop-color="#AB8090"/>
<stop offset="0.7209" stop-color="#AB8090"/>
<stop offset="0.895833" stop-color="#AB8090"/>
</radialGradient>
<linearGradient id="paint1_linear_218_433" x1="36.1263" y1="16.8993" x2="35.0136" y2="16.5329" gradientUnits="userSpaceOnUse">
<stop offset="0.1128" stop-color="#DDDDDF"/>
<stop offset="0.1338" stop-color="#D0D1D2"/>
<stop offset="0.1951" stop-color="#AEB2B3"/>
<stop offset="0.2537" stop-color="#969B9C"/>
<stop offset="0.3078" stop-color="#888E8E"/>
<stop offset="0.3533" stop-color="#838989"/>
<stop offset="0.4492" stop-color="#868C8C"/>
<stop offset="0.5265" stop-color="#909595"/>
<stop offset="0.5973" stop-color="#A1A5A5"/>
<stop offset="0.6638" stop-color="#B9BABA"/>
<stop offset="0.6976" stop-color="#C8C8C8"/>
<stop offset="0.8821" stop-color="#E1E1E1"/>
</linearGradient>
<linearGradient id="paint2_linear_218_433" x1="36.6441" y1="15.3421" x2="35.5248" y2="14.9736" gradientUnits="userSpaceOnUse">
<stop offset="0.1128" stop-color="#BCBCBE"/>
<stop offset="0.1338" stop-color="#AFB0B1"/>
<stop offset="0.1951" stop-color="#8D9192"/>
<stop offset="0.2537" stop-color="#767A7B"/>
<stop offset="0.3078" stop-color="#676D6D"/>
<stop offset="0.3533" stop-color="#626868"/>
<stop offset="0.438" stop-color="#656B6B"/>
<stop offset="0.5063" stop-color="#6F7474"/>
<stop offset="0.5688" stop-color="#808484"/>
<stop offset="0.6279" stop-color="#989B9B"/>
<stop offset="0.6841" stop-color="#B6B7B7"/>
<stop offset="0.6976" stop-color="#BFBFBF"/>
<stop offset="0.8821" stop-color="#BDBDBD"/>
</linearGradient>
<radialGradient id="paint3_radial_218_433" cx="0" cy="0" r="1" gradientUnits="userSpaceOnUse" gradientTransform="translate(37.3203 12.6606) scale(0.033539 0.0390403)">
<stop stop-color="white"/>
<stop offset="0.00738025" stop-color="#F6F9F7"/>
<stop offset="0.0476763" stop-color="#C8DACE"/>
<stop offset="0.0930898" stop-color="#9DBDA7"/>
<stop offset="0.1419" stop-color="#77A385"/>
<stop offset="0.195" stop-color="#578D68"/>
<stop offset="0.2537" stop-color="#3B7B4F"/>
<stop offset="0.32" stop-color="#256C3C"/>
<stop offset="0.3974" stop-color="#14612C"/>
<stop offset="0.4931" stop-color="#095922"/>
<stop offset="0.6274" stop-color="#02541C"/>
<stop offset="1" stop-color="#484A3F"/>
</radialGradient>
</defs>
</svg>
