<svg width="196" height="198" viewBox="0 0 196 198" fill="none" xmlns="http://www.w3.org/2000/svg">
<path d="M97.9948 197.157C152.116 197.157 195.99 153.022 195.99 98.5786C195.99 44.1351 152.116 0 97.9948 0C43.8738 0 0 44.1351 0 98.5786C0 153.022 43.8738 197.157 97.9948 197.157Z" fill="#5F3E4A"/>
<path d="M97.9948 197.157C152.116 197.157 195.99 153.022 195.99 98.5786C195.99 44.1351 152.116 0 97.9948 0C43.8738 0 0 44.1351 0 98.5786C0 153.022 43.8738 197.157 97.9948 197.157Z" fill="#5F3E4A"/>
<path d="M52.2475 77.2281C56.1377 75.2466 58.3537 71.0855 57.7135 66.8749C56.9256 65.1411 56.0885 63.3577 55.3006 61.6239C54.5127 59.8901 55.8422 57.1656 58.0582 58.0077C59.2401 58.4536 60.3234 59.1471 61.259 60.0387C61.5053 60.1873 61.8007 60.3855 62.047 60.6332C64.4107 63.4073 66.7251 66.2804 68.8426 69.2526C70.4676 71.5809 71.6494 74.2559 70.3691 77.0299C67.6607 83.1725 58.8461 82.1322 53.4293 81.835C51.2134 81.7359 49.933 78.3674 52.2475 77.2281Z" fill="white"/>
<path d="M103.313 79.7049C99.866 77.7235 97.8963 73.5624 98.438 69.3517C99.1274 67.6179 99.8661 65.8346 100.555 64.1008C101.245 62.367 100.063 59.6425 98.0933 60.4846C97.0592 60.9304 96.0743 61.6239 95.2371 62.5156C94.9909 62.6642 94.7447 62.8624 94.5477 63.11C92.4303 65.8841 90.362 68.7573 88.4908 71.7295C87.0627 74.0577 86.0286 76.7327 87.1119 79.5068C89.5249 85.6494 97.3546 84.6091 102.181 84.3119C104.249 84.2128 105.381 80.8443 103.313 79.7049Z" fill="white"/>
<path d="M26.5915 105.316C27.5764 101.848 30.6295 99.3711 34.2735 99.7674C35.997 99.9656 37.6221 100.758 38.8039 101.997C39.3948 102.641 39.838 103.384 40.1827 104.176C40.3797 104.622 40.7244 106.703 41.1184 106.901C41.4631 107.099 45.7965 102.343 46.3382 101.848C47.6678 100.709 49.342 99.9656 51.1148 100.56C52.9368 101.154 53.8725 102.839 54.8081 104.374C55.6452 105.811 56.4824 107.198 57.3195 108.635C58.2059 107.891 58.8953 106.901 59.5847 106.009C60.7666 104.523 62.0962 103.235 63.8689 102.492C67.119 101.154 70.1228 102.591 71.8464 105.514C72.6343 106.802 72.8805 108.734 73.9146 109.873C74.8995 111.012 75.3919 110.467 76.4753 109.724C77.2139 109.229 77.9526 108.684 78.642 108.139C81.6951 105.91 84.7482 103.086 88.6877 105.167C91.5438 106.653 93.6613 110.368 95.0401 113.192C95.1386 113.241 95.1879 113.291 95.2864 113.341C95.3848 113.291 95.4341 113.241 95.5326 113.142C96.3205 112.152 97.4038 111.31 98.2902 110.467C99.4721 109.328 100.752 108.04 102.377 107.495C106.071 106.257 108.237 109.279 110.207 111.904C110.897 112.845 111.537 113.786 112.128 114.728C112.177 114.827 112.275 114.926 112.325 115.025C113.408 113.588 116.461 110.566 116.904 110.121C117.594 109.328 119.022 109.179 119.908 109.724C123.454 112.003 125.965 115.372 127.098 119.483C127.935 122.554 123.207 123.892 122.37 120.821C121.779 118.591 120.647 116.709 119.022 115.223C117.938 116.461 116.904 117.7 115.772 118.889C114.639 120.127 113.359 121.167 111.586 120.821C109.715 120.474 108.878 118.691 107.942 117.204C107.499 116.461 107.006 115.768 106.514 115.074C106.12 114.48 105.086 112.548 104.396 112.3C102.968 111.904 100.703 115.074 99.8168 115.916C98.6349 117.056 97.5023 118.492 95.7295 118.641C92.4302 118.889 90.4112 115.074 89.0816 112.697C88.1953 111.111 86.9642 108.585 84.8467 109.774C83.0739 110.765 81.4489 112.251 79.8238 113.44C77.0662 115.471 73.8161 116.66 71.0093 113.885C69.8766 112.746 69.1872 111.359 68.5963 109.873C67.9069 108.189 67.316 106.207 65.2477 107.347C63.7212 108.189 62.7856 110.121 61.653 111.409C60.4219 112.746 58.9445 113.737 57.1718 114.183C56.0884 114.43 54.9558 113.985 54.4141 113.043C53.4785 111.458 52.5921 109.922 51.6565 108.337C51.2625 107.644 50.8193 106.604 50.2777 106.009C49.6375 105.216 50.5239 105.216 49.4898 105.712C48.1602 106.356 46.8306 108.288 45.7472 109.328C44.7624 110.269 43.8267 111.359 42.5464 111.755C39.9857 112.597 37.6713 110.814 36.6864 108.486C36.0955 107.148 36.0463 105.167 34.4212 104.622C32.9932 104.176 31.8606 105.167 31.5159 106.504C30.4817 109.675 25.7544 108.387 26.5915 105.316Z" fill="#363636"/>
<path d="M43.2358 48.9426C46.0919 50.1315 49.2435 49.0416 52.0504 48.1995C55.0543 47.3078 58.0089 46.1685 60.8158 44.7814C63.6719 43.3944 66.1341 47.6546 63.2779 49.0416C59.7816 50.7259 56.1869 52.1625 52.4443 53.2027C49.0465 54.1439 45.304 55.1347 41.9062 53.6981C39.0501 52.5588 40.3304 47.7537 43.2358 48.9426Z" fill="#363636"/>
<path d="M93.563 45.9703C98.4381 52.3605 106.268 55.5309 113.408 58.4536C116.314 59.6425 115.033 64.4476 112.079 63.2091C103.51 59.7416 95.0403 55.9767 89.2788 48.4471C87.4075 45.9703 91.6917 43.4934 93.563 45.9703Z" fill="#363636"/>
<path d="M66.3311 80.0022C62.5394 80.0022 62.5394 74.0577 66.3311 74.0577C70.1721 74.0577 70.1721 80.0022 66.3311 80.0022Z" fill="#363636"/>
<path d="M90.7559 80.5967C86.9642 80.5967 86.9642 74.6522 90.7559 74.6522C94.5477 74.6522 94.5477 80.5967 90.7559 80.5967Z" fill="#363636"/>
<path d="M67.1682 79.2096C65.2477 79.2096 65.2477 76.2374 67.1682 76.2374C69.0394 76.2374 69.0394 79.2096 67.1682 79.2096Z" fill="#363636"/>
<path d="M89.5248 79.5563C87.6043 79.5563 87.6043 76.5841 89.5248 76.5841C91.4454 76.5841 91.4454 79.5563 89.5248 79.5563Z" fill="#363636"/>
</svg>
