<svg width="204" height="206" viewBox="0 0 204 206" fill="none" xmlns="http://www.w3.org/2000/svg">
<g filter="url(#filter0_d_141_493)">
<path d="M4 98.5786C4 129.143 17.7882 156.438 39.5046 174.519C48.3685 181.9 58.5127 187.745 69.5925 191.658C79.7367 195.225 90.6688 197.157 101.995 197.157C110.12 197.157 118.048 196.166 125.632 194.284C137.696 191.262 148.875 186.011 158.723 178.977C183.69 161.094 199.99 131.768 199.99 98.5786C199.99 44.1374 156.114 0 101.995 0C47.8761 0 4 44.1374 4 98.5786Z" fill="#EEC94D"/>
<path d="M158.008 42.5834C160.945 42.5834 163.327 38.7465 163.327 34.0135C163.327 29.2805 160.945 25.4436 158.008 25.4436C155.071 25.4436 152.69 29.2805 152.69 34.0135C152.69 38.7465 155.071 42.5834 158.008 42.5834Z" fill="white"/>
<path d="M41.4486 34.1621C41.4486 38.9177 43.7138 42.5834 46.6192 42.5834C49.5738 42.5834 51.9375 38.7195 51.9375 34.0135C51.9375 29.3075 49.5738 25.4436 46.6192 25.4436C43.6646 25.4436 41.4486 29.4066 41.4486 34.1621Z" fill="white"/>
<path d="M46.7176 33.0228C42.9258 33.0228 42.9258 27.0783 46.7176 27.0783C50.5094 27.0783 50.5094 33.0228 46.7176 33.0228Z" fill="#363636"/>
<path d="M157.762 33.1218C153.97 33.1218 153.97 27.1774 157.762 27.1774C161.554 27.1774 161.554 33.1218 157.762 33.1218Z" fill="#363636"/>
<path d="M173.372 45.1098C170.171 55.1658 162.588 62.7449 154.118 68.5903C144.762 75.0301 134.076 79.6371 123.045 82.213C101.673 87.1667 79.1199 84.2935 59.6687 74.0889C49.0321 68.4912 39.4788 60.813 31.6983 51.5991C29.8763 49.4195 32.9786 46.2491 34.8499 48.4288C47.7517 63.7852 65.5779 74.5347 85.1769 78.4977C105.859 82.7083 128.068 78.8445 146.288 68.2435C155.94 62.6459 165.592 54.9181 169.137 43.8714C169.974 41.1964 174.259 42.3852 173.372 45.1098Z" fill="#363636"/>
<path d="M36.672 49.1223C34.9977 50.113 34.0129 51.5991 33.6682 53.4815C33.4712 54.6704 32.0431 55.3144 30.9598 55.0172C29.7287 54.6704 29.187 53.4815 29.4332 52.2926C29.9749 49.3204 31.8954 46.7445 34.456 45.2584C36.9182 43.8218 39.1834 47.6857 36.672 49.1223Z" fill="#363636"/>
<path d="M172.486 47.6857C172.141 46.0014 171.009 44.7135 169.334 44.2676C166.577 43.475 167.759 39.2149 170.516 39.9579C173.569 40.8001 176.081 43.376 176.77 46.4968C177.016 47.6857 176.425 48.9241 175.244 49.2213C174.111 49.5681 172.732 48.8746 172.486 47.6857Z" fill="#363636"/>
<path d="M47.0131 31.2394C45.0926 31.2394 45.0926 28.2672 47.0131 28.2672C48.9336 28.2672 48.9336 31.2394 47.0131 31.2394Z" fill="#363636"/>
<path d="M158.057 31.0908C156.137 31.0908 156.137 28.1186 158.057 28.1186C159.929 28.1186 159.929 31.0908 158.057 31.0908Z" fill="#363636"/>
</g>
<defs>
<filter id="filter0_d_141_493" x="0" y="0" width="203.99" height="205.157" filterUnits="userSpaceOnUse" color-interpolation-filters="sRGB">
<feFlood flood-opacity="0" result="BackgroundImageFix"/>
<feColorMatrix in="SourceAlpha" type="matrix" values="0 0 0 0 0 0 0 0 0 0 0 0 0 0 0 0 0 0 127 0" result="hardAlpha"/>
<feOffset dy="4"/>
<feGaussianBlur stdDeviation="2"/>
<feComposite in2="hardAlpha" operator="out"/>
<feColorMatrix type="matrix" values="0 0 0 0 0 0 0 0 0 0 0 0 0 0 0 0 0 0 0.25 0"/>
<feBlend mode="normal" in2="BackgroundImageFix" result="effect1_dropShadow_141_493"/>
<feBlend mode="normal" in="SourceGraphic" in2="effect1_dropShadow_141_493" result="shape"/>
</filter>
</defs>
</svg>
