<svg width="70" height="78" viewBox="0 0 70 78" fill="none" xmlns="http://www.w3.org/2000/svg">
<path d="M46.0626 74.5826L46.1123 74.3888L46.1125 74.3889L46.1136 74.3892L46.1181 74.3903L46.136 74.3949L46.2064 74.4127C46.2683 74.4284 46.3596 74.4513 46.477 74.4805C46.7118 74.539 47.0509 74.6225 47.4678 74.7228C48.3017 74.9233 49.4467 75.1906 50.6911 75.4579C53.1886 75.9943 56.0595 76.5242 57.632 76.5242C59.1671 76.5242 60.1227 75.9289 61.0373 75.3093C61.0879 75.2751 61.1385 75.2406 61.1891 75.2061C62.051 74.6194 62.923 74.0256 64.2143 74.0256C64.8172 74.0256 65.6101 73.8189 66.4783 73.4938C67.3052 73.1841 68.183 72.7737 69.0014 72.3554V10.7161H0.780505V75.5253C1.73842 75.1877 2.96859 74.7998 4.5335 74.3893C7.22638 73.6752 8.26321 73.5738 9.25914 73.7614C9.58977 73.8237 9.91948 73.9191 10.2989 74.0288C10.4748 74.0797 10.6613 74.1337 10.8636 74.1889C11.5107 74.3654 12.3496 74.5644 13.5861 74.7415C16.0683 75.0969 17.6955 75.0952 18.7948 74.964C19.8877 74.8336 20.4646 74.5747 20.8526 74.4005L20.8536 74.4001L20.854 74.3999C20.9412 74.361 21.063 74.3466 21.1853 74.3402C21.3163 74.3334 21.4794 74.3349 21.6681 74.343C22.0461 74.3594 22.5414 74.4031 23.1181 74.4675C24.2724 74.5962 25.7652 74.8087 27.3244 75.0543C30.4412 75.5452 33.837 76.1709 35.3397 76.5297C36.0482 76.6989 37.0634 76.6595 38.2083 76.4929C39.3472 76.3271 40.5916 76.0393 41.7469 75.728C42.9017 75.4169 43.9638 75.0835 44.7375 74.8277C45.1243 74.6999 45.4387 74.5915 45.6563 74.5152C45.7651 74.477 45.8496 74.4468 45.9069 74.4263L45.9719 74.4028L45.9884 74.3968L45.9925 74.3953L45.9934 74.3949L45.9937 74.3948L46.0626 74.5826ZM46.0626 74.5826L46.1122 74.3888L46.052 74.3734L45.9937 74.3948L46.0626 74.5826Z" fill="url(#paint0_radial_218_469)" stroke="#847F7F" stroke-width="0.4"/>
<path d="M36.1304 13.7224C36.0729 13.6555 35.958 13.5218 35.7857 13.4549C35.6708 13.388 35.4985 13.388 35.3836 13.388L35.2687 13.3212L33.3156 19.2723C33.2581 19.4729 33.4305 19.7404 33.6602 19.8073C33.9475 19.941 34.1772 19.8741 34.2347 19.6735L36.2453 13.7224H36.1304Z" fill="url(#paint1_linear_218_469)"/>
<path d="M36.2453 13.3211L36.1878 13.2543C36.1304 13.1874 36.0729 13.1874 36.0155 13.1205C35.958 13.1205 35.958 13.0537 35.9006 13.0537C35.7857 12.9868 35.6708 12.9868 35.6134 12.9868C35.5559 12.9868 35.5559 12.9868 35.4985 12.9868L35.3261 12.9199L34.1772 16.5307C34.3496 16.7313 34.5794 16.9319 34.8091 17.1325C34.924 17.2663 34.9815 17.3331 35.0964 17.3331L36.475 13.388L36.2453 13.3211Z" fill="url(#paint2_linear_218_469)"/>
<path d="M40.4962 14.7921C40.4962 14.7921 40.4962 14.7253 40.5536 14.7253C40.7834 14.0566 41.1855 12.2512 39.9217 10.5127C39.5196 9.71025 38.6579 8.90785 37.509 8.43978C36.3601 7.90485 35.2687 7.83798 34.5219 8.10545C32.5688 8.37291 31.822 10.0446 31.5922 10.7133V10.7801C31.5922 10.847 31.4199 11.4488 31.4199 11.4488C30.9604 13.1873 32.5114 15.394 34.8666 16.4638C37.2218 17.5337 39.6345 17.0656 40.3238 15.394C40.2664 15.394 40.4962 14.859 40.4962 14.7921Z" fill="#242521"/>
<path d="M40.4961 14.7253C40.4961 14.7253 40.4961 14.6584 40.5536 14.6584C40.7834 13.9897 41.4152 11.6494 40.094 9.91085C39.6919 9.10845 38.8302 8.30604 37.6813 7.83798C36.5325 7.30304 35.441 7.23617 34.6368 7.50364C32.7411 7.77111 31.822 9.97772 31.5922 10.6464V10.7133C31.5922 10.7801 31.5922 10.7801 31.5922 10.7801C31.1327 12.5187 32.6837 14.7253 35.0389 15.7951C37.3941 16.865 39.8642 16.397 40.4961 14.7921C40.4961 14.7921 40.4961 14.7921 40.4961 14.7253Z" fill="#242521"/>
<path d="M38.6004 8.4398C36.8197 7.03559 34.924 6.76812 34.407 7.83799C33.89 8.90787 34.8091 10.9139 36.475 12.3181C38.1409 13.6554 39.9217 13.9229 40.5536 12.853C41.2429 11.7831 40.3812 9.844 38.6004 8.4398Z" fill="#3B3D37"/>
<path d="M41.0706 4.22702C40.6685 3.75896 40.0366 3.29089 39.2898 2.95655C38.5431 2.62222 37.7963 2.48848 37.2218 2.48848L36.3027 2.08728L34.4645 8.43965C34.1773 9.37578 35.0964 10.6463 36.5325 11.2481C37.9686 11.9167 39.4047 11.6493 39.7494 10.78L42.0472 4.62823L41.0706 4.22702Z" fill="#242521"/>
<path d="M37.2793 2.28788C37.4516 2.28788 37.6814 2.28788 37.8537 2.28788L35.3836 10.3119C35.0389 9.97759 34.7517 9.64325 34.6368 9.30892L36.7623 2.08728L37.2793 2.28788Z" fill="#242521"/>
<path d="M36.2453 2.15436L35.4985 4.82904C35.9006 5.69831 36.6474 6.63445 37.5665 7.36998C38.6005 8.17239 39.692 8.64046 40.5536 8.64046L41.6451 5.69831C41.243 4.96277 40.5536 4.16037 39.692 3.4917C38.4282 2.55556 37.1644 2.08749 36.2453 2.15436Z" fill="#242521"/>
<mask id="path-10-inside-1_218_469" fill="white">
<path d="M36.7623 1.61926C37.5666 1.55239 38.5431 1.75299 39.5771 2.22106C40.6111 2.68913 41.4153 3.29093 41.9898 3.9596L43.2536 4.49454L42.6217 6.09935C42.1621 7.30295 40.1516 7.50356 38.0836 6.56742C36.073 5.63128 34.6943 3.89274 35.039 2.68913L35.4985 1.01746L36.7623 1.61926Z"/>
</mask>
<path d="M36.7623 1.61926C37.5666 1.55239 38.5431 1.75299 39.5771 2.22106C40.6111 2.68913 41.4153 3.29093 41.9898 3.9596L43.2536 4.49454L42.6217 6.09935C42.1621 7.30295 40.1516 7.50356 38.0836 6.56742C36.073 5.63128 34.6943 3.89274 35.039 2.68913L35.4985 1.01746L36.7623 1.61926Z" fill="#242521"/>
<path d="M36.7623 1.61926L36.7406 1.66485L36.7529 1.67071L36.7665 1.66958L36.7623 1.61926ZM41.9898 3.9596L41.9515 3.99251L41.9592 4.00149L41.9701 4.00611L41.9898 3.9596ZM43.2536 4.49454L43.3006 4.51304L43.3186 4.46723L43.2733 4.44804L43.2536 4.49454ZM42.6217 6.09935L42.5747 6.08085L42.5745 6.08134L42.6217 6.09935ZM38.0836 6.56742L38.0622 6.6132L38.0627 6.61342L38.0836 6.56742ZM35.039 2.68913L35.0875 2.70303L35.0877 2.70252L35.039 2.68913ZM35.4985 1.01746L35.5203 0.971866L35.4658 0.945951L35.4499 1.00407L35.4985 1.01746ZM36.7665 1.66958C37.5598 1.60363 38.5276 1.80139 39.5563 2.26706L39.5979 2.17506C38.5587 1.7046 37.5733 1.50116 36.7581 1.56894L36.7665 1.66958ZM39.5563 2.26706C40.5845 2.73251 41.3825 3.33014 41.9515 3.99251L42.0281 3.9267C41.4482 3.25173 40.6377 2.64575 39.5979 2.17506L39.5563 2.26706ZM41.9701 4.00611L43.2339 4.54104L43.2733 4.44804L42.0095 3.9131L41.9701 4.00611ZM43.2066 4.47604L42.5747 6.08085L42.6687 6.11785L43.3006 4.51304L43.2066 4.47604ZM42.5745 6.08134C42.3543 6.65806 41.7595 7.00297 40.9507 7.08555C40.1429 7.16803 39.1322 6.98669 38.1044 6.52142L38.0627 6.61342C39.1029 7.08428 40.1315 7.27071 40.9609 7.18602C41.7893 7.10144 42.4295 6.74424 42.6689 6.11736L42.5745 6.08134ZM38.1049 6.52164C37.1059 6.05652 36.2652 5.39253 35.7177 4.69733C35.1687 4.00012 34.9218 3.28162 35.0875 2.70303L34.9904 2.67523C34.8115 3.30024 35.0816 4.05282 35.6384 4.75982C36.1967 5.46882 37.0506 6.14218 38.0622 6.61319L38.1049 6.52164ZM35.0877 2.70252L35.5472 1.03084L35.4499 1.00407L34.9903 2.67575L35.0877 2.70252ZM35.4768 1.06305L36.7406 1.66485L36.784 1.57367L35.5203 0.971866L35.4768 1.06305Z" fill="black" mask="url(#path-10-inside-1_218_469)"/>
<path d="M43.2536 4.49453C42.794 5.69813 40.726 5.89873 38.658 4.9626C36.59 4.02646 35.1539 2.28792 35.4985 1.08431C35.8432 -0.119297 37.9112 -0.386765 40.0941 0.61624C42.277 1.55238 43.7131 3.29092 43.2536 4.49453Z" fill="url(#paint3_radial_218_469)"/>
<path d="M43.0237 4.1603C42.5642 5.29704 40.6685 5.49764 38.7728 4.62837C36.8197 3.7591 35.4985 2.15429 35.8432 1.01755C36.1878 -0.11919 38.0835 -0.319791 40.0941 0.616347C42.1046 1.55249 43.4259 3.09043 43.0237 4.1603Z" fill="#242521"/>
<defs>
<radialGradient id="paint0_radial_218_469" cx="0" cy="0" r="1" gradientUnits="userSpaceOnUse" gradientTransform="translate(35.5151 19.8766) scale(38.5053 77.0966)">
<stop stop-color="#FFDC6B"/>
<stop offset="0.708333" stop-color="#FFDC6B"/>
<stop offset="0.895833" stop-color="#FFDC6B"/>
</radialGradient>
<linearGradient id="paint1_linear_218_469" x1="35.2684" y1="16.8993" x2="34.1556" y2="16.5329" gradientUnits="userSpaceOnUse">
<stop offset="0.1128" stop-color="#DDDDDF"/>
<stop offset="0.1338" stop-color="#D0D1D2"/>
<stop offset="0.1951" stop-color="#AEB2B3"/>
<stop offset="0.2537" stop-color="#969B9C"/>
<stop offset="0.3078" stop-color="#888E8E"/>
<stop offset="0.3533" stop-color="#838989"/>
<stop offset="0.4492" stop-color="#868C8C"/>
<stop offset="0.5265" stop-color="#909595"/>
<stop offset="0.5973" stop-color="#A1A5A5"/>
<stop offset="0.6638" stop-color="#B9BABA"/>
<stop offset="0.6976" stop-color="#C8C8C8"/>
<stop offset="0.8821" stop-color="#E1E1E1"/>
</linearGradient>
<linearGradient id="paint2_linear_218_469" x1="35.7861" y1="15.3421" x2="34.6669" y2="14.9736" gradientUnits="userSpaceOnUse">
<stop offset="0.1128" stop-color="#BCBCBE"/>
<stop offset="0.1338" stop-color="#AFB0B1"/>
<stop offset="0.1951" stop-color="#8D9192"/>
<stop offset="0.2537" stop-color="#767A7B"/>
<stop offset="0.3078" stop-color="#676D6D"/>
<stop offset="0.3533" stop-color="#626868"/>
<stop offset="0.438" stop-color="#656B6B"/>
<stop offset="0.5063" stop-color="#6F7474"/>
<stop offset="0.5688" stop-color="#808484"/>
<stop offset="0.6279" stop-color="#989B9B"/>
<stop offset="0.6841" stop-color="#B6B7B7"/>
<stop offset="0.6976" stop-color="#BFBFBF"/>
<stop offset="0.8821" stop-color="#BDBDBD"/>
</linearGradient>
<radialGradient id="paint3_radial_218_469" cx="0" cy="0" r="1" gradientUnits="userSpaceOnUse" gradientTransform="translate(36.4623 12.6606) scale(0.033539 0.0390403)">
<stop stop-color="white"/>
<stop offset="0.00738025" stop-color="#F6F9F7"/>
<stop offset="0.0476763" stop-color="#C8DACE"/>
<stop offset="0.0930898" stop-color="#9DBDA7"/>
<stop offset="0.1419" stop-color="#77A385"/>
<stop offset="0.195" stop-color="#578D68"/>
<stop offset="0.2537" stop-color="#3B7B4F"/>
<stop offset="0.32" stop-color="#256C3C"/>
<stop offset="0.3974" stop-color="#14612C"/>
<stop offset="0.4931" stop-color="#095922"/>
<stop offset="0.6274" stop-color="#02541C"/>
<stop offset="1" stop-color="#484A3F"/>
</radialGradient>
</defs>
</svg>
