<svg width="426" height="311" viewBox="0 0 426 311" fill="none" xmlns="http://www.w3.org/2000/svg">
<g clip-path="url(#clip0_166_289)">
<path d="M108.931 25.497C108.688 25.1822 108.445 24.8674 108.202 24.5527C105.527 22.9788 103.825 20.4605 102.61 17.3128C102.123 16.0537 100.908 14.165 98.9623 14.165C98.7192 12.5911 98.476 11.0172 98.476 9.44334C97.9897 9.44334 97.2603 9.44334 96.774 8.81378C95.3151 7.55467 93.3699 6.92512 93.1267 3.77735C93.1267 2.83302 91.6678 0.944351 90.452 -0.314758L0 116.468C0 116.782 0 117.412 0 118.042C1.21575 117.727 2.43151 117.412 3.89041 117.097C4.13356 120.875 5.59247 123.393 7.29452 125.596C8.02397 126.541 9.23973 127.17 9.23973 129.373C9.23973 130.318 10.2123 131.262 10.6986 131.577C13.1301 132.521 14.589 134.41 15.5616 137.558C16.0479 138.817 17.0205 140.076 17.9931 140.705C18.9658 141.335 17.9932 143.538 19.6952 143.538C21.1541 143.538 19.9384 146.686 21.3973 147.001C21.6404 148.575 22.1267 150.149 22.613 151.408L114.524 32.4221C114.281 31.4778 113.795 30.5334 113.551 29.9039C111.849 28.9595 111.849 28.9595 108.931 25.497Z" fill="#D8C7A9"/>
<path d="M38.9041 280.781C38.9041 280.781 40.363 280.781 41.3356 281.411C42.3082 282.041 42.0651 283.3 42.0651 283.3C43.7671 283.3 43.7671 281.726 44.9829 281.411C45.7123 281.411 46.6849 282.041 47.4144 282.355C48.387 281.096 49.1164 280.152 50.089 278.893C50.5753 279.837 50.8185 280.781 51.3048 281.411C53.9795 280.781 59.5719 279.208 59.5719 279.208C59.5719 279.208 62.2466 277.004 63.9486 277.004C64.4349 277.004 66.137 277.004 66.137 277.004C66.137 277.004 68.0822 276.375 69.0548 276.375C69.5411 277.004 70.2705 277.634 70.5137 278.263C70.7569 278.893 71.2432 279.522 71.4863 280.152C72.9452 280.152 73.6747 278.893 74.8904 278.263C77.8082 277.634 78.7808 280.152 79.9966 282.041C82.1849 283.3 84.6164 282.355 86.5616 284.874C88.2637 287.392 91.4247 284.874 92.8836 286.133C95.3151 288.336 97.0171 286.762 98.7192 286.133C99.6918 287.077 100.178 287.707 100.664 288.336C103.339 287.392 105.771 286.447 107.959 288.966C108.202 289.28 108.202 289.595 108.445 289.595C109.661 289.595 110.147 289.595 111.12 289.91C111.363 289.91 112.579 289.28 112.579 289.28L112.822 289.91C113.065 289.91 113.308 289.91 113.551 289.91C117.928 288.966 122.062 289.28 125.952 288.021C126.195 286.762 126.438 285.818 126.682 284.874C127.897 285.188 127.654 286.447 128.384 287.707C132.031 287.077 136.164 286.133 140.055 287.077C142.729 287.707 144.918 284.874 147.349 283.929C148.079 283.614 148.808 282.985 149.538 282.985C151.483 282.355 151.969 284.244 152.942 284.874C152.455 285.503 152.212 286.133 151.24 287.707C151.969 287.392 152.942 287.077 153.671 287.077C154.401 287.077 155.373 287.392 156.103 287.392C157.562 287.392 159.021 286.447 160.723 285.818C161.209 285.503 161.695 285.503 162.182 285.503L162.425 283.3C164.37 283.929 165.099 282.355 166.558 282.67C168.017 282.985 168.26 284.244 168.99 284.874C170.205 284.244 171.664 283.929 173.123 283.3C173.123 284.559 173.123 285.503 173.366 286.447C176.284 287.707 181.39 288.966 181.39 288.966L183.579 288.651L184.065 287.392C184.065 287.392 186.253 288.651 187.469 288.651C187.955 289.91 188.442 290.54 188.928 291.484C190.144 291.484 190.63 289.91 191.603 289.28C192.819 288.651 193.548 288.966 194.277 289.91C195.007 290.54 195.493 291.484 196.223 292.428C198.168 293.373 200.113 291.484 202.301 293.373C203.274 294.317 204.49 293.687 205.462 293.058C206.435 292.428 207.408 291.799 208.137 292.113C210.812 293.373 212.027 290.854 213.243 289.91C214.216 290.54 214.945 290.854 215.675 291.169C217.863 288.966 219.565 286.762 222.483 288.336C222.726 288.336 222.969 288.651 222.969 288.651C229.048 285.818 235.613 285.818 241.692 282.985C241.692 281.411 241.935 280.467 241.935 279.522C243.151 279.522 242.908 280.781 243.88 281.726C247.284 280.467 251.175 278.578 255.308 278.578C257.983 278.578 259.685 275.43 262.116 273.542C262.846 272.912 261.63 272.282 262.36 271.968C264.305 271.023 266.979 272.597 267.952 273.227C267.709 273.856 267.466 274.486 266.493 276.375C269.654 274.171 272.329 274.801 274.76 271.968C275.003 271.653 275.49 271.338 275.976 271.023L275.733 268.82C277.678 268.82 277.678 266.931 278.894 266.616C280.11 266.302 280.596 267.246 281.325 267.561C282.298 266.302 283.271 265.357 284.243 264.098C284.729 265.043 284.973 265.987 285.459 266.931C288.377 266.302 291.295 265.357 294.455 264.728C297.616 264.098 300.777 263.469 304.182 263.783C304.668 264.413 305.154 265.043 305.397 265.672C305.64 266.302 305.884 266.931 306.37 267.561C307.829 267.876 308.801 266.616 309.774 265.987C312.935 265.672 313.664 268.505 314.637 270.709C316.582 272.282 320.473 276.689 320.473 276.689L325.336 275.745C325.336 275.745 331.171 278.263 332.873 277.948C333.603 279.208 334.089 279.837 334.575 280.467C337.25 280.152 338.709 277.319 340.654 280.467C340.654 280.781 341.627 282.985 341.87 282.985C344.788 283.3 347.462 284.244 349.894 284.874L350.866 285.188H351.839C352.082 285.188 352.325 285.188 352.812 285.188H354.027C355.486 285.188 357.188 285.188 358.647 284.874C358.89 283.614 359.134 282.67 359.134 281.726C360.349 282.041 360.106 283.3 360.836 284.559C364.483 283.929 368.13 282.67 372.264 283.614C374.695 283.929 376.884 281.096 379.072 279.837C379.801 279.522 380.531 278.578 381.26 278.578C382.962 277.948 383.692 279.522 384.664 280.152C384.421 280.781 383.935 281.411 383.206 283.3C386.366 281.411 386.853 283.929 389.284 281.096C389.527 280.781 391.959 278.893 392.445 278.578L392.202 276.375L391.473 271.653L394.877 271.023L396.579 273.227L398.281 270.709L400.226 271.338L400.955 270.709L402.171 271.338L403.873 270.079L406.062 272.597L409.466 271.968L408.007 263.469L411.168 261.895V38.4029H33.5548V279.522L36.4726 278.263L38.9041 280.781Z" fill="#ECECEC"/>
<path d="M409.466 100.099H35.2569V101.673H409.466V100.099Z" fill="#C6D6F1"/>
<path d="M409.466 124.652H35.2569V126.226H409.466V124.652Z" fill="#C6D6F1"/>
<path d="M409.466 148.89H35.2569V150.464H409.466V148.89Z" fill="#C6D6F1"/>
<path d="M409.466 173.128H35.2569V174.702H409.466V173.128Z" fill="#C6D6F1"/>
<path d="M409.466 197.68H35.2569V199.254H409.466V197.68Z" fill="#C6D6F1"/>
<path d="M409.466 221.918H35.2569V223.492H409.466V221.918Z" fill="#C6D6F1"/>
<path d="M409.466 246.156H35.2569V247.73H409.466V246.156Z" fill="#C6D6F1"/>
<path d="M275.49 270.709H35.2569V271.968H275.733L275.49 270.709Z" fill="#C6D6F1"/>
<path d="M408.979 270.709H314.151C314.394 271.023 314.394 271.338 314.637 271.968C314.88 271.968 314.88 272.282 315.123 272.282H393.418L394.634 271.968L394.877 272.282H397.794L398.038 271.653L399.497 272.282H400.226L400.712 271.653L401.442 272.282H401.928L403.387 271.023L404.36 272.282H408.736L408.979 270.709Z" fill="#C6D6F1"/>
<path d="M29.1781 72.4188V138.502L109.418 37.7733H56.7765L29.1781 72.4188Z" fill="#DECFB5"/>
<path d="M35.2569 101.673H61.7603L62.976 100.099H35.2569V101.673Z" fill="#C6D6F1"/>
<path d="M35.2569 125.911H43.0377L44.2534 124.652H35.2569V125.911Z" fill="#C6D6F1"/>
</g>
<defs>
<clipPath id="clip0_166_289">
<rect width="426" height="311" fill="white"/>
</clipPath>
</defs>
</svg>
