<svg width="397" height="558" viewBox="0 0 397 558" fill="none" xmlns="http://www.w3.org/2000/svg">
<path d="M27.6229 114.844C27.6229 116.53 26.2122 117.898 24.4721 117.898C22.7319 117.898 21.3212 116.53 21.3212 114.844C21.3212 113.157 22.7319 111.789 24.4721 111.789C26.2122 111.789 27.6229 113.157 27.6229 114.844Z" fill="#282C34"/>
<path d="M27.6229 114.844C27.6229 116.53 26.2122 117.898 24.4721 117.898C22.7319 117.898 21.3212 116.53 21.3212 114.844C21.3212 113.157 22.7319 111.789 24.4721 111.789C26.2122 111.789 27.6229 113.157 27.6229 114.844Z" fill="#282C34"/>
<path d="M28.0113 157.625C28.0113 159.312 26.6007 160.68 24.8605 160.68C23.1203 160.68 21.7096 159.312 21.7096 157.625C21.7096 155.939 23.1203 154.571 24.8605 154.571C26.6007 154.571 28.0113 155.939 28.0113 157.625Z" fill="#282C34"/>
<path d="M27.623 114.844C27.623 116.53 26.2123 117.898 24.4722 117.898C22.732 117.898 21.3213 116.53 21.3213 114.844C21.3213 113.157 22.732 111.789 24.4722 111.789C26.2123 111.789 27.623 113.157 27.623 114.844Z" fill="#282C34"/>
<path d="M28.0113 195.799C28.0113 197.486 26.6007 198.854 24.8605 198.854C23.1203 198.854 21.7096 197.486 21.7096 195.799C21.7096 194.113 23.1203 192.745 24.8605 192.745C26.6007 192.745 28.0113 194.113 28.0113 195.799Z" fill="#282C34"/>
<path d="M28.3995 238.581C28.3995 240.268 26.9888 241.636 25.2487 241.636C23.5085 241.636 22.0978 240.268 22.0978 238.581C22.0978 236.894 23.5085 235.527 25.2487 235.527C26.9888 235.527 28.3995 236.894 28.3995 238.581Z" fill="#282C34"/>
<path d="M25.4906 34.5297C25.4906 36.2166 24.0799 37.584 22.3397 37.584C20.5996 37.584 19.1889 36.2166 19.1889 34.5297C19.1889 32.8428 20.5996 31.4753 22.3397 31.4753C24.0799 31.4753 25.4906 32.8428 25.4906 34.5297Z" fill="#282C34"/>
<path d="M25.8789 77.3116C25.8789 78.9984 24.4682 80.3659 22.728 80.3659C20.9879 80.3659 19.5772 78.9984 19.5772 77.3116C19.5772 75.6247 20.9879 74.2572 22.728 74.2572C24.4682 74.2572 25.8789 75.6247 25.8789 77.3116Z" fill="#282C34"/>
<path d="M28.0113 157.625C28.0113 159.312 26.6007 160.68 24.8605 160.68C23.1203 160.68 21.7096 159.312 21.7096 157.625C21.7096 155.939 23.1203 154.571 24.8605 154.571C26.6007 154.571 28.0113 155.939 28.0113 157.625Z" fill="#282C34"/>
<path d="M28.3996 282.564C28.3996 284.251 26.989 285.618 25.2488 285.618C23.5086 285.618 22.0979 284.251 22.0979 282.564C22.0979 280.877 23.5086 279.51 25.2488 279.51C26.989 279.51 28.3996 280.877 28.3996 282.564Z" fill="#282C34"/>
<path d="M28.0113 325.304C28.0113 326.991 26.6007 328.358 24.8605 328.358C23.1203 328.358 21.7096 326.991 21.7096 325.304C21.7096 323.617 23.1203 322.25 24.8605 322.25C26.6007 322.25 28.0113 323.617 28.0113 325.304Z" fill="#282C34"/>
<path d="M28.3995 368.086C28.3995 369.773 26.9888 371.14 25.2487 371.14C23.5085 371.14 22.0978 369.773 22.0978 368.086C22.0978 366.399 23.5085 365.031 25.2487 365.031C26.9888 365.031 28.3995 366.399 28.3995 368.086Z" fill="#282C34"/>
<path d="M28.3995 412.068C28.3995 413.755 26.9888 415.123 25.2487 415.123C23.5085 415.123 22.0978 413.755 22.0978 412.068C22.0978 410.382 23.5085 409.014 25.2487 409.014C26.9888 409.014 28.3995 410.382 28.3995 412.068Z" fill="#282C34"/>
<path d="M28.0113 454.809C28.0113 456.495 26.6007 457.863 24.8605 457.863C23.1203 457.863 21.7096 456.495 21.7096 454.809C21.7096 453.122 23.1203 451.754 24.8605 451.754C26.6007 451.754 28.0113 453.122 28.0113 454.809Z" fill="#282C34"/>
<path d="M28.3995 497.59C28.3995 499.277 26.9888 500.645 25.2487 500.645C23.5085 500.645 22.0978 499.277 22.0978 497.59C22.0978 495.903 23.5085 494.536 25.2487 494.536C26.9888 494.536 28.3995 495.903 28.3995 497.59Z" fill="#282C34"/>
<path d="M28.0113 540.33C28.0113 542.017 26.6007 543.385 24.8605 543.385C23.1203 543.385 21.7096 542.017 21.7096 540.33C21.7096 538.643 23.1203 537.276 24.8605 537.276C26.6007 537.276 28.0113 538.643 28.0113 540.33Z" fill="#282C34"/>
<path d="M27.6229 114.844C27.6229 116.53 26.2122 117.898 24.4721 117.898C22.7319 117.898 21.3212 116.53 21.3212 114.844C21.3212 113.157 22.7319 111.789 24.4721 111.789C26.2122 111.789 27.6229 113.157 27.6229 114.844Z" fill="#282C34"/>
<path d="M27.6229 114.844C27.6229 116.53 26.2122 117.898 24.4721 117.898C22.7319 117.898 21.3212 116.53 21.3212 114.844C21.3212 113.157 22.7319 111.789 24.4721 111.789C26.2122 111.789 27.6229 113.157 27.6229 114.844Z" fill="#282C34"/>
<path d="M28.0113 157.625C28.0113 159.312 26.6007 160.68 24.8605 160.68C23.1203 160.68 21.7096 159.312 21.7096 157.625C21.7096 155.939 23.1203 154.571 24.8605 154.571C26.6007 154.571 28.0113 155.939 28.0113 157.625Z" fill="#282C34"/>
<path d="M28.0113 195.799C28.0113 197.486 26.6007 198.854 24.8605 198.854C23.1203 198.854 21.7096 197.486 21.7096 195.799C21.7096 194.113 23.1203 192.745 24.8605 192.745C26.6007 192.745 28.0113 194.113 28.0113 195.799Z" fill="#282C34"/>
<path d="M28.3995 238.581C28.3995 240.268 26.9888 241.636 25.2487 241.636C23.5085 241.636 22.0978 240.268 22.0978 238.581C22.0978 236.894 23.5085 235.527 25.2487 235.527C26.9888 235.527 28.3995 236.894 28.3995 238.581Z" fill="#282C34"/>
<path d="M25.4906 34.5297C25.4906 36.2166 24.0799 37.584 22.3397 37.584C20.5996 37.584 19.1889 36.2166 19.1889 34.5297C19.1889 32.8428 20.5996 31.4753 22.3397 31.4753C24.0799 31.4753 25.4906 32.8428 25.4906 34.5297Z" fill="#282C34"/>
<path d="M25.8789 77.3116C25.8789 78.9984 24.4682 80.3659 22.728 80.3659C20.9879 80.3659 19.5772 78.9984 19.5772 77.3116C19.5772 75.6247 20.9879 74.2572 22.728 74.2572C24.4682 74.2572 25.8789 75.6247 25.8789 77.3116Z" fill="#282C34"/>
<path d="M28.0113 157.625C28.0113 159.312 26.6007 160.68 24.8605 160.68C23.1203 160.68 21.7096 159.312 21.7096 157.625C21.7096 155.939 23.1203 154.571 24.8605 154.571C26.6007 154.571 28.0113 155.939 28.0113 157.625Z" fill="#282C34"/>
<path d="M28.3996 282.564C28.3996 284.251 26.989 285.618 25.2488 285.618C23.5086 285.618 22.0979 284.251 22.0979 282.564C22.0979 280.877 23.5086 279.51 25.2488 279.51C26.989 279.51 28.3996 280.877 28.3996 282.564Z" fill="#282C34"/>
<path d="M28.0113 325.304C28.0113 326.991 26.6007 328.358 24.8605 328.358C23.1203 328.358 21.7096 326.991 21.7096 325.304C21.7096 323.617 23.1203 322.25 24.8605 322.25C26.6007 322.25 28.0113 323.617 28.0113 325.304Z" fill="#282C34"/>
<path d="M28.3995 368.086C28.3995 369.773 26.9888 371.14 25.2487 371.14C23.5085 371.14 22.0978 369.773 22.0978 368.086C22.0978 366.399 23.5085 365.031 25.2487 365.031C26.9888 365.031 28.3995 366.399 28.3995 368.086Z" fill="#282C34"/>
<path d="M28.3995 412.068C28.3995 413.755 26.9888 415.123 25.2487 415.123C23.5085 415.123 22.0978 413.755 22.0978 412.068C22.0978 410.382 23.5085 409.014 25.2487 409.014C26.9888 409.014 28.3995 410.382 28.3995 412.068Z" fill="#282C34"/>
<path d="M28.0113 454.809C28.0113 456.495 26.6007 457.863 24.8605 457.863C23.1203 457.863 21.7096 456.495 21.7096 454.809C21.7096 453.122 23.1203 451.754 24.8605 451.754C26.6007 451.754 28.0113 453.122 28.0113 454.809Z" fill="#282C34"/>
<path d="M28.3995 497.59C28.3995 499.277 26.9888 500.645 25.2487 500.645C23.5085 500.645 22.0978 499.277 22.0978 497.59C22.0978 495.903 23.5085 494.536 25.2487 494.536C26.9888 494.536 28.3995 495.903 28.3995 497.59Z" fill="#282C34"/>
<path d="M28.0113 540.33C28.0113 542.017 26.6007 543.385 24.8605 543.385C23.1203 543.385 21.7096 542.017 21.7096 540.33C21.7096 538.643 23.1203 537.276 24.8605 537.276C26.6007 537.276 28.0113 538.643 28.0113 540.33Z" fill="#282C34"/>
<rect x="12.9956" y="0.5" width="383.477" height="556.775" rx="19.5" fill="#ECECEC" stroke="black"/>
<path d="M13.5 213.483H396" stroke="black"/>
<path d="M13.5 240.865H396.5" stroke="black"/>
<path d="M13.5 267.232H396" stroke="black"/>
<path d="M13.5 293.6H396.5" stroke="black"/>
<path d="M13.5 319.967H396" stroke="black"/>
<path d="M13.5 346.335H396" stroke="black"/>
<path d="M13.5 373.716H396" stroke="black"/>
<path d="M13.5 400.084H396" stroke="black"/>
<path d="M13.5 426.451H396.5" stroke="black"/>
<path d="M13.5 452.819H396" stroke="black"/>
<path d="M13.5 479.187H396" stroke="black"/>
<path d="M13.5 506.568H396" stroke="black"/>
<path d="M13.5 532.936H396" stroke="black"/>
<path d="M28.5841 88.5096C28.5841 90.007 27.1734 91.2209 25.4332 91.2209C23.6931 91.2209 22.2824 90.007 22.2824 88.5096C22.2824 87.0121 23.6931 85.7982 25.4332 85.7982C27.1734 85.7982 28.5841 87.0121 28.5841 88.5096Z" fill="#282C34"/>
<path d="M25.21 90.1315C26.3385 84.221 21.4315 78.7456 14.4992 78.7469C7.8819 78.7482 5.85796 80.7248 4.04181 86.564C3.86474 87.1333 3.74511 87.7215 3.7079 88.3098C3.36369 93.75 5.47757 97.0806 12 98" stroke="#A7A46C" stroke-width="2" stroke-linecap="round"/>
<path d="M28.5841 88.5096C28.5841 90.007 27.1734 91.2209 25.4332 91.2209C23.6931 91.2209 22.2824 90.007 22.2824 88.5096C22.2824 87.0121 23.6931 85.7982 25.4332 85.7982C27.1734 85.7982 28.5841 87.0121 28.5841 88.5096Z" fill="#282C34"/>
<path d="M25.21 90.1315C26.3385 84.221 21.4315 78.7456 14.4992 78.7469C7.5668 78.7483 5.67562 80.9175 3.78331 87.4246" stroke="#A7A46C" stroke-width="2" stroke-linecap="round"/>
<path d="M28.9725 126.487C28.9725 127.984 27.5618 129.198 25.8217 129.198C24.0815 129.198 22.6708 127.984 22.6708 126.487C22.6708 124.99 24.0815 123.776 25.8217 123.776C27.5618 123.776 28.9725 124.99 28.9725 126.487Z" fill="#282C34"/>
<path d="M25.5984 128.109C26.7269 122.198 21.8199 116.723 14.8875 116.724C7.95517 116.726 6.06399 118.895 4.17167 125.402" stroke="#A7A46C" stroke-width="2" stroke-linecap="round"/>
<path d="M28.9725 160.374C28.9725 161.871 27.5618 163.085 25.8217 163.085C24.0815 163.085 22.6708 161.871 22.6708 160.374C22.6708 158.877 24.0815 157.663 25.8217 157.663C27.5618 157.663 28.9725 158.877 28.9725 160.374Z" fill="#282C34"/>
<path d="M25.5984 161.996C26.7269 156.085 21.8199 150.61 14.8875 150.611C8.27026 150.613 6.24632 152.589 4.43018 158.428C4.25311 158.998 4.13445 159.586 4.09348 160.174C3.7136 165.627 5.4771 169.081 12 170" stroke="#A7A46C" stroke-width="2" stroke-linecap="round"/>
<path d="M29.3608 198.351C29.3608 199.849 27.9501 201.063 26.21 201.063C24.4698 201.063 23.0591 199.849 23.0591 198.351C23.0591 196.854 24.4698 195.64 26.21 195.64C27.9501 195.64 29.3608 196.854 29.3608 198.351Z" fill="#282C34"/>
<path d="M25.9867 199.973C27.1152 194.063 22.2082 188.587 15.2758 188.589C8.65857 188.59 6.63463 190.566 4.81848 196.406C4.64141 196.975 4.52371 197.563 4.47895 198.151C4.0637 203.607 5.47698 207.081 12 208" stroke="#A7A46C" stroke-width="2" stroke-linecap="round"/>
<path d="M26.4519 17.2151C26.4519 18.7126 25.0412 19.9265 23.301 19.9265C21.5609 19.9265 20.1502 18.7126 20.1502 17.2151C20.1502 15.7177 21.5609 14.5038 23.301 14.5038C25.0412 14.5038 26.4519 15.7177 26.4519 17.2151Z" fill="#282C34"/>
<path d="M23.0777 18.8371C24.2063 12.9266 19.2992 7.45116 12.3669 7.45251C5.74963 7.4538 3.72569 9.43039 1.90955 15.2695C1.73248 15.8388 1.60815 16.4275 1.58931 17.0158C1.41595 22.4294 5.21028 25.5111 11.7317 26.4304" stroke="#A7A46C" stroke-width="2" stroke-linecap="round"/>
<path d="M26.8401 55.1925C26.8401 56.6899 25.4294 57.9038 23.6892 57.9038C21.9491 57.9038 20.5384 56.6899 20.5384 55.1925C20.5384 53.695 21.9491 52.4811 23.6892 52.4811C25.4294 52.4811 26.8401 53.695 26.8401 55.1925Z" fill="#282C34"/>
<path d="M23.466 56.8144C24.5945 50.904 19.6875 45.4285 12.7551 45.4299C6.13788 45.4312 4.11394 47.4077 2.29779 53.2469C2.12072 53.8162 1.99673 54.4048 1.97669 54.993C1.79202 60.4156 5.47825 63.5807 12 64.5" stroke="#A7A46C" stroke-width="2" stroke-linecap="round"/>
<path d="M28.9725 126.487C28.9725 127.984 27.5618 129.198 25.8217 129.198C24.0815 129.198 22.6708 127.984 22.6708 126.487C22.6708 124.99 24.0815 123.776 25.8217 123.776C27.5618 123.776 28.9725 124.99 28.9725 126.487Z" fill="#282C34"/>
<path d="M25.5984 128.109C26.7269 122.198 21.8199 116.723 14.8875 116.724C8.27026 116.726 6.24632 118.702 4.43018 124.541C4.25311 125.111 4.13448 125.699 4.09369 126.287C3.71294 131.777 5.47588 135.58 12 136.5" stroke="#A7A46C" stroke-width="2" stroke-linecap="round"/>
<path d="M29.3608 237.395C29.3608 238.892 27.9501 240.106 26.21 240.106C24.4698 240.106 23.0591 238.892 23.0591 237.395C23.0591 235.897 24.4698 234.683 26.21 234.683C27.9501 234.683 29.3608 235.897 29.3608 237.395Z" fill="#282C34"/>
<path d="M25.9867 239.016C27.1152 233.106 22.2082 227.631 15.2758 227.632C8.65857 227.633 6.63463 229.61 4.81848 235.449C4.64141 236.018 4.5237 236.606 4.47892 237.194C4.06376 242.646 5.47712 246.081 12 247" stroke="#A7A46C" stroke-width="2" stroke-linecap="round"/>
<path d="M28.9725 275.335C28.9725 276.832 27.5618 278.046 25.8217 278.046C24.0815 278.046 22.6708 276.832 22.6708 275.335C22.6708 273.837 24.0815 272.623 25.8217 272.623C27.5618 272.623 28.9725 273.837 28.9725 275.335Z" fill="#282C34"/>
<path d="M25.5984 276.957C26.727 271.046 21.8199 265.571 14.8876 265.572C8.27033 265.573 6.24638 267.55 4.43024 273.389C4.25317 273.958 4.13447 274.547 4.09328 275.135C3.71445 280.544 5.47857 283.581 12 284.5" stroke="#A7A46C" stroke-width="2" stroke-linecap="round"/>
<path d="M29.3608 313.312C29.3608 314.81 27.9501 316.023 26.21 316.023C24.4698 316.023 23.0591 314.81 23.0591 313.312C23.0591 311.815 24.4698 310.601 26.21 310.601C27.9501 310.601 29.3608 311.815 29.3608 313.312Z" fill="#282C34"/>
<path d="M25.9867 314.934C27.1152 309.024 22.2082 303.548 15.2758 303.549C8.65857 303.551 6.63463 305.527 4.81848 311.366C4.64141 311.936 4.52373 312.524 4.47927 313.112C4.06297 318.618 5.47529 322.58 12 323.5" stroke="#A7A46C" stroke-width="2" stroke-linecap="round"/>
<path d="M29.3608 352.355C29.3608 353.853 27.9501 355.067 26.21 355.067C24.4698 355.067 23.0591 353.853 23.0591 352.355C23.0591 350.858 24.4698 349.644 26.21 349.644C27.9501 349.644 29.3608 350.858 29.3608 352.355Z" fill="#282C34"/>
<path d="M25.9867 353.977C27.1152 348.067 22.2082 342.591 15.2758 342.593C8.65857 342.594 6.63463 344.571 4.81848 350.41C4.64141 350.979 4.52371 351.567 4.47894 352.155C4.06371 357.61 5.477 361.081 12 362" stroke="#A7A46C" stroke-width="2" stroke-linecap="round"/>
<path d="M28.9725 390.296C28.9725 391.793 27.5618 393.007 25.8217 393.007C24.0815 393.007 22.6708 391.793 22.6708 390.296C22.6708 388.798 24.0815 387.584 25.8217 387.584C27.5618 387.584 28.9725 388.798 28.9725 390.296Z" fill="#282C34"/>
<path d="M25.5984 391.918C26.7269 386.007 21.8199 380.532 14.8875 380.533C8.66221 380.534 5.49225 383.081 3.54003 388.313C3.08096 389.543 2.97522 390.864 3.17556 392.131C4.43142 400.073 7.35133 400.57 12 401.5" stroke="#A7A46C" stroke-width="2" stroke-linecap="round"/>
<path d="M29.3608 428.273C29.3608 429.77 27.9501 430.984 26.21 430.984C24.4698 430.984 23.0591 429.77 23.0591 428.273C23.0591 426.775 24.4698 425.562 26.21 425.562C27.9501 425.562 29.3608 426.775 29.3608 428.273Z" fill="#282C34"/>
<path d="M25.9867 429.895C27.1152 423.984 22.2082 418.509 15.2758 418.51C8.65857 418.512 6.63463 420.488 4.81848 426.327C4.64141 426.897 4.52373 427.484 4.47929 428.072C4.06292 433.583 5.47517 437.58 12 438.5" stroke="#A7A46C" stroke-width="2" stroke-linecap="round"/>
<path d="M28.9725 466.213C28.9725 467.711 27.5618 468.925 25.8217 468.925C24.0815 468.925 22.6708 467.711 22.6708 466.213C22.6708 464.716 24.0815 463.502 25.8217 463.502C27.5618 463.502 28.9725 464.716 28.9725 466.213Z" fill="#282C34"/>
<path d="M25.5984 467.835C26.7269 461.925 21.8199 456.449 14.8875 456.451C8.27026 456.452 6.24632 458.428 4.43018 464.268C4.25311 464.837 4.1345 465.425 4.09384 466.013C3.71248 471.529 5.47502 475.58 12 476.5" stroke="#A7A46C" stroke-width="2" stroke-linecap="round"/>
<path d="M28.9725 504.172C28.9725 505.669 27.5618 506.883 25.8217 506.883C24.0815 506.883 22.6708 505.669 22.6708 504.172C22.6708 502.674 24.0815 501.46 25.8217 501.46C27.5618 501.46 28.9725 502.674 28.9725 504.172Z" fill="#282C34"/>
<path d="M25.5984 505.794C26.7269 499.883 21.8199 494.408 14.8875 494.409C8.27026 494.41 6.24632 496.387 4.43018 502.226C4.25311 502.796 4.13447 503.384 4.09359 503.972C3.71325 509.444 5.4764 513.08 11.9999 514" stroke="#A7A46C" stroke-width="2" stroke-linecap="round"/>
<path d="M28.9725 542.131C28.9725 543.628 27.5618 544.842 25.8217 544.842C24.0815 544.842 22.6708 543.628 22.6708 542.131C22.6708 540.633 24.0815 539.419 25.8217 539.419C27.5618 539.419 28.9725 540.633 28.9725 542.131Z" fill="#282C34"/>
<path d="M25.5984 543.753C26.727 537.842 21.8199 532.367 14.8876 532.368C7.95523 532.369 6.06405 534.539 4.17174 541.046C3 548.5 11.4999 555 18 552" stroke="#A7A46C" stroke-width="2" stroke-linecap="round"/>
</svg>
