<?xml version="1.0" encoding="utf-8"?>
<!-- Generator: Adobe Illustrator 25.0.0, SVG Export Plug-In . SVG Version: 6.00 Build 0)  -->
<svg version="1.1" id="Layer_1" xmlns="http://www.w3.org/2000/svg" xmlns:xlink="http://www.w3.org/1999/xlink" x="0px" y="0px"
	 viewBox="0 0 397 558" style="enable-background:new 0 0 397 558;" xml:space="preserve">
<style type="text/css">
	.st0{fill:#282C34;}
	.st1{fill:none;stroke:#A7A46C;stroke-width:2;stroke-linecap:round;}
	.st2{fill:#ECECEC;stroke:#000000;}
	.st3{fill:none;stroke:#000000;}
</style>
<g>
	<path class="st0" d="M-396.5,21.1c0,1.7-1.4,3.1-3.2,3.1c-1.7,0-3.2-1.4-3.2-3.1c0-1.7,1.4-3.1,3.2-3.1
		C-397.9,18-396.5,19.4-396.5,21.1z"/>
	<path class="st0" d="M-396.5,21.1c0,1.7-1.4,3.1-3.2,3.1c-1.7,0-3.2-1.4-3.2-3.1c0-1.7,1.4-3.1,3.2-3.1
		C-397.9,18-396.5,19.4-396.5,21.1z"/>
	<path class="st0" d="M-396.1,63.9c0,1.7-1.4,3.1-3.2,3.1s-3.2-1.4-3.2-3.1c0-1.7,1.4-3.1,3.2-3.1S-396.1,62.2-396.1,63.9z"/>
	<path class="st0" d="M-396.5,21.1c0,1.7-1.4,3.1-3.2,3.1c-1.7,0-3.2-1.4-3.2-3.1c0-1.7,1.4-3.1,3.2-3.1
		C-397.9,18-396.5,19.4-396.5,21.1z"/>
	<path class="st0" d="M-396.1,102c0,1.7-1.4,3.1-3.2,3.1s-3.2-1.4-3.2-3.1c0-1.7,1.4-3.1,3.2-3.1S-396.1,100.3-396.1,102z"/>
	<path class="st0" d="M-395.7,144.8c0,1.7-1.4,3.1-3.2,3.1c-1.7,0-3.2-1.4-3.2-3.1c0-1.7,1.4-3.1,3.2-3.1
		C-397.1,141.8-395.7,143.1-395.7,144.8z"/>
	<path class="st0" d="M-398.6-59.2c0,1.7-1.4,3.1-3.2,3.1c-1.7,0-3.2-1.4-3.2-3.1c0-1.7,1.4-3.1,3.2-3.1
		C-400-62.3-398.6-60.9-398.6-59.2z"/>
	<path class="st0" d="M-398.2-16.5c0,1.7-1.4,3.1-3.2,3.1c-1.7,0-3.2-1.4-3.2-3.1c0-1.7,1.4-3.1,3.2-3.1
		C-399.6-19.5-398.2-18.1-398.2-16.5z"/>
	<path class="st0" d="M-396.1,63.9c0,1.7-1.4,3.1-3.2,3.1s-3.2-1.4-3.2-3.1c0-1.7,1.4-3.1,3.2-3.1S-396.1,62.2-396.1,63.9z"/>
	<path class="st0" d="M-395.7,188.8c0,1.7-1.4,3.1-3.2,3.1s-3.2-1.4-3.2-3.1c0-1.7,1.4-3.1,3.2-3.1S-395.7,187.1-395.7,188.8z"/>
	<path class="st0" d="M-396.1,231.5c0,1.7-1.4,3.1-3.2,3.1s-3.2-1.4-3.2-3.1c0-1.7,1.4-3.1,3.2-3.1S-396.1,229.8-396.1,231.5z"/>
	<path class="st0" d="M-395.7,274.3c0,1.7-1.4,3.1-3.2,3.1c-1.7,0-3.2-1.4-3.2-3.1s1.4-3.1,3.2-3.1
		C-397.1,271.3-395.7,272.6-395.7,274.3z"/>
	<path class="st0" d="M-395.7,318.3c0,1.7-1.4,3.1-3.2,3.1c-1.7,0-3.2-1.4-3.2-3.1c0-1.7,1.4-3.1,3.2-3.1
		C-397.1,315.2-395.7,316.6-395.7,318.3z"/>
	<path class="st0" d="M-396.1,361c0,1.7-1.4,3.1-3.2,3.1s-3.2-1.4-3.2-3.1c0-1.7,1.4-3.1,3.2-3.1S-396.1,359.3-396.1,361z"/>
	<path class="st0" d="M-395.7,403.8c0,1.7-1.4,3.1-3.2,3.1c-1.7,0-3.2-1.4-3.2-3.1c0-1.7,1.4-3.1,3.2-3.1
		C-397.1,400.8-395.7,402.1-395.7,403.8z"/>
	<path class="st0" d="M-396.1,446.6c0,1.7-1.4,3.1-3.2,3.1s-3.2-1.4-3.2-3.1s1.4-3.1,3.2-3.1S-396.1,444.9-396.1,446.6z"/>
	<path class="st0" d="M-396.5,21.1c0,1.7-1.4,3.1-3.2,3.1c-1.7,0-3.2-1.4-3.2-3.1c0-1.7,1.4-3.1,3.2-3.1
		C-397.9,18-396.5,19.4-396.5,21.1z"/>
	<path class="st0" d="M-396.5,21.1c0,1.7-1.4,3.1-3.2,3.1c-1.7,0-3.2-1.4-3.2-3.1c0-1.7,1.4-3.1,3.2-3.1
		C-397.9,18-396.5,19.4-396.5,21.1z"/>
	<path class="st0" d="M-396.1,63.9c0,1.7-1.4,3.1-3.2,3.1s-3.2-1.4-3.2-3.1c0-1.7,1.4-3.1,3.2-3.1S-396.1,62.2-396.1,63.9z"/>
	<path class="st0" d="M-396.1,102c0,1.7-1.4,3.1-3.2,3.1s-3.2-1.4-3.2-3.1c0-1.7,1.4-3.1,3.2-3.1S-396.1,100.3-396.1,102z"/>
	<path class="st0" d="M-395.7,144.8c0,1.7-1.4,3.1-3.2,3.1c-1.7,0-3.2-1.4-3.2-3.1c0-1.7,1.4-3.1,3.2-3.1
		C-397.1,141.8-395.7,143.1-395.7,144.8z"/>
	<path class="st0" d="M-398.6-59.2c0,1.7-1.4,3.1-3.2,3.1c-1.7,0-3.2-1.4-3.2-3.1c0-1.7,1.4-3.1,3.2-3.1
		C-400-62.3-398.6-60.9-398.6-59.2z"/>
	<path class="st0" d="M-398.2-16.5c0,1.7-1.4,3.1-3.2,3.1c-1.7,0-3.2-1.4-3.2-3.1c0-1.7,1.4-3.1,3.2-3.1
		C-399.6-19.5-398.2-18.1-398.2-16.5z"/>
	<path class="st0" d="M-396.1,63.9c0,1.7-1.4,3.1-3.2,3.1s-3.2-1.4-3.2-3.1c0-1.7,1.4-3.1,3.2-3.1S-396.1,62.2-396.1,63.9z"/>
	<path class="st0" d="M-395.7,188.8c0,1.7-1.4,3.1-3.2,3.1s-3.2-1.4-3.2-3.1c0-1.7,1.4-3.1,3.2-3.1S-395.7,187.1-395.7,188.8z"/>
	<path class="st0" d="M-396.1,231.5c0,1.7-1.4,3.1-3.2,3.1s-3.2-1.4-3.2-3.1c0-1.7,1.4-3.1,3.2-3.1S-396.1,229.8-396.1,231.5z"/>
	<path class="st0" d="M-395.7,274.3c0,1.7-1.4,3.1-3.2,3.1c-1.7,0-3.2-1.4-3.2-3.1s1.4-3.1,3.2-3.1
		C-397.1,271.3-395.7,272.6-395.7,274.3z"/>
	<path class="st0" d="M-395.7,318.3c0,1.7-1.4,3.1-3.2,3.1c-1.7,0-3.2-1.4-3.2-3.1c0-1.7,1.4-3.1,3.2-3.1
		C-397.1,315.2-395.7,316.6-395.7,318.3z"/>
	<path class="st0" d="M-396.1,361c0,1.7-1.4,3.1-3.2,3.1s-3.2-1.4-3.2-3.1c0-1.7,1.4-3.1,3.2-3.1S-396.1,359.3-396.1,361z"/>
	<path class="st0" d="M-395.7,403.8c0,1.7-1.4,3.1-3.2,3.1c-1.7,0-3.2-1.4-3.2-3.1c0-1.7,1.4-3.1,3.2-3.1
		C-397.1,400.8-395.7,402.1-395.7,403.8z"/>
	<path class="st0" d="M-396.1,446.6c0,1.7-1.4,3.1-3.2,3.1s-3.2-1.4-3.2-3.1s1.4-3.1,3.2-3.1S-396.1,444.9-396.1,446.6z"/>
	<path class="st1" d="M-398.5-3.6c1.1-5.9-3.8-11.4-10.9-11.4c-6.7,0-8.8,2-10.6,7.8c-0.2,0.6-0.3,1.2-0.3,1.8
		C-420.5,0-416.6,3-410,4"/>
	<path class="st1" d="M-398.5-3.6c1.1-5.9-3.8-11.4-10.9-11.4c-6.7,0-8.8,2-10.6,7.8c-0.2,0.6-0.3,1.2-0.3,1.8
		C-420.5,0-416.6,3-410,4"/>
	<path class="st1" d="M-398.1,34.3C-397,28.4-402,22.9-409,23c-6.7,0-8.8,2-10.6,7.8c-0.2,0.6-0.3,1.2-0.3,1.8
		c-0.2,5.4,3.7,8.5,10.3,9.4"/>
	<path class="st1" d="M-398.5-3.6c1.1-5.9-3.8-11.4-10.9-11.4c-6.7,0-8.8,2-10.6,7.8c-0.2,0.6-0.3,1.2-0.3,1.8
		C-420.5,0-416.6,3-410,4"/>
	<path class="st1" d="M-398.1,68.2c1.1-5.9-3.8-11.4-10.9-11.4c-6.7,0-8.8,2-10.6,7.8c-0.2,0.6-0.3,1.2-0.3,1.8
		c-0.2,5.4,3.7,8.5,10.3,9.4"/>
	<path class="st1" d="M-397.7,106.2c1.1-5.9-3.8-11.4-10.9-11.4c-6.7,0-8.8,2-10.6,7.8c-0.2,0.6-0.3,1.2-0.3,1.8
		c-0.2,5.4,3.7,8.5,10.3,9.4"/>
	<path class="st1" d="M-400.7-74.9c1.1-5.9-3.8-11.4-10.9-11.4c-6.7,0-8.8,2-10.6,7.8c-0.2,0.6-0.3,1.2-0.3,1.8
		c-0.2,5.4,3.7,8.5,10.3,9.4"/>
	<path class="st1" d="M-400.3-37c1.1-5.9-3.8-11.4-10.9-11.4c-6.7,0-8.8,2-10.6,7.8c-0.2,0.6-0.3,1.2-0.3,1.8
		c-0.2,5.4,3.7,8.5,10.3,9.4"/>
	<path class="st1" d="M-398.1,34.3C-397,28.4-402,22.9-409,23c-6.7,0-8.8,2-10.6,7.8c-0.2,0.6-0.3,1.2-0.3,1.8
		c-0.2,5.4,3.7,8.5,10.3,9.4"/>
	<path class="st1" d="M-397.7,145.2c1.1-5.9-3.8-11.4-10.9-11.4c-6.7,0-8.8,2-10.6,7.8c-0.2,0.6-0.3,1.2-0.3,1.8
		c-0.2,5.4,3.7,8.5,10.3,9.4"/>
	<path class="st1" d="M-398.1,183.2c1.1-5.9-3.8-11.4-10.9-11.4c-6.7,0-8.8,2-10.6,7.8c-0.2,0.6-0.3,1.2-0.3,1.8
		c-0.2,5.4,3.7,8.5,10.3,9.4"/>
	<path class="st1" d="M-397.7,221.2c1.1-5.9-3.8-11.4-10.9-11.4c-6.7,0-8.8,2-10.6,7.8c-0.2,0.6-0.3,1.2-0.3,1.8
		c-0.2,5.4,3.7,8.5,10.3,9.4"/>
	<path class="st1" d="M-397.7,260.2c1.1-5.9-3.8-11.4-10.9-11.4c-6.7,0-8.8,2-10.6,7.8c-0.2,0.6-0.3,1.2-0.3,1.8
		c-0.2,5.4,3.7,8.5,10.3,9.4"/>
	<path class="st1" d="M-398.1,298.1c1.1-5.9-3.8-11.4-10.9-11.4c-6.7,0-8.8,2-10.6,7.8c-0.2,0.6-0.3,1.2-0.3,1.8
		c-0.2,5.4,3.7,8.5,10.3,9.4"/>
	<path class="st1" d="M-397.7,336.1c1.1-5.9-3.8-11.4-10.9-11.4c-6.7,0-8.8,2-10.6,7.8c-0.2,0.6-0.3,1.2-0.3,1.8
		c-0.2,5.4,3.7,8.5,10.3,9.4"/>
	<path class="st1" d="M-398.1,374.1c1.1-5.9-3.8-11.4-10.9-11.4c-6.7,0-8.8,2-10.6,7.8c-0.2,0.6-0.3,1.2-0.3,1.8
		c-0.2,5.4,3.7,8.5,10.3,9.4"/>
	<path class="st1" d="M-398.1,412c1.1-5.9-3.8-11.4-10.9-11.4c-6.7,0-8.8,2-10.6,7.8c-0.2,0.6-0.3,1.2-0.3,1.8
		c-0.2,5.4,3.7,8.5,10.3,9.4"/>
	<path class="st1" d="M-398.1,450c1.1-5.9-3.8-11.4-10.9-11.4c-6.7,0-8.8,2-10.6,7.8c-0.2,0.6-0.3,1.2-0.3,1.8
		c-0.2,5.4,3.7,8.5,10.3,9.4"/>
	<path class="st1" d="M-398.5-3.6c1.1-5.9-3.8-11.4-10.9-11.4c-6.7,0-8.8,2-10.6,7.8c-0.2,0.6-0.3,1.2-0.3,1.8
		C-420.5,0-416.6,3-410,4"/>
	<path class="st1" d="M-398.5-3.6c1.1-5.9-3.8-11.4-10.9-11.4c-6.7,0-8.8,2-10.6,7.8c-0.2,0.6-0.3,1.2-0.3,1.8
		C-420.5,0-416.6,3-410,4"/>
	<path class="st1" d="M-398.1,34.3C-397,28.4-402,22.9-409,23c-6.7,0-8.8,2-10.6,7.8c-0.2,0.6-0.3,1.2-0.3,1.8
		c-0.2,5.4,3.7,8.5,10.3,9.4"/>
	<path class="st1" d="M-398.1,68.2c1.1-5.9-3.8-11.4-10.9-11.4c-6.7,0-8.8,2-10.6,7.8c-0.2,0.6-0.3,1.2-0.3,1.8
		c-0.2,5.4,3.7,8.5,10.3,9.4"/>
	<path class="st1" d="M-397.7,106.2c1.1-5.9-3.8-11.4-10.9-11.4c-6.7,0-8.8,2-10.6,7.8c-0.2,0.6-0.3,1.2-0.3,1.8
		c-0.2,5.4,3.7,8.5,10.3,9.4"/>
	<path class="st1" d="M-400.7-74.9c1.1-5.9-3.8-11.4-10.9-11.4c-6.7,0-8.8,2-10.6,7.8c-0.2,0.6-0.3,1.2-0.3,1.8
		c-0.2,5.4,3.7,8.5,10.3,9.4"/>
	<path class="st1" d="M-400.3-37c1.1-5.9-3.8-11.4-10.9-11.4c-6.7,0-8.8,2-10.6,7.8c-0.2,0.6-0.3,1.2-0.3,1.8
		c-0.2,5.4,3.7,8.5,10.3,9.4"/>
	<path class="st1" d="M-398.1,34.3C-397,28.4-402,22.9-409,23c-6.7,0-8.8,2-10.6,7.8c-0.2,0.6-0.3,1.2-0.3,1.8
		c-0.2,5.4,3.7,8.5,10.3,9.4"/>
	<path class="st1" d="M-397.7,145.2c1.1-5.9-3.8-11.4-10.9-11.4c-6.7,0-8.8,2-10.6,7.8c-0.2,0.6-0.3,1.2-0.3,1.8
		c-0.2,5.4,3.7,8.5,10.3,9.4"/>
	<path class="st1" d="M-398.1,183.2c1.1-5.9-3.8-11.4-10.9-11.4c-6.7,0-8.8,2-10.6,7.8c-0.2,0.6-0.3,1.2-0.3,1.8
		c-0.2,5.4,3.7,8.5,10.3,9.4"/>
	<path class="st1" d="M-397.7,221.2c1.1-5.9-3.8-11.4-10.9-11.4c-6.7,0-8.8,2-10.6,7.8c-0.2,0.6-0.3,1.2-0.3,1.8
		c-0.2,5.4,3.7,8.5,10.3,9.4"/>
	<path class="st1" d="M-397.7,260.2c1.1-5.9-3.8-11.4-10.9-11.4c-6.7,0-8.8,2-10.6,7.8c-0.2,0.6-0.3,1.2-0.3,1.8
		c-0.2,5.4,3.7,8.5,10.3,9.4"/>
	<path class="st1" d="M-398.1,298.1c1.1-5.9-3.8-11.4-10.9-11.4c-6.7,0-8.8,2-10.6,7.8c-0.2,0.6-0.3,1.2-0.3,1.8
		c-0.2,5.4,3.7,8.5,10.3,9.4"/>
	<path class="st1" d="M-397.7,336.1c1.1-5.9-3.8-11.4-10.9-11.4c-6.7,0-8.8,2-10.6,7.8c-0.2,0.6-0.3,1.2-0.3,1.8
		c-0.2,5.4,3.7,8.5,10.3,9.4"/>
	<path class="st1" d="M-398.1,374.1c1.1-5.9-3.8-11.4-10.9-11.4c-6.7,0-8.8,2-10.6,7.8c-0.2,0.6-0.3,1.2-0.3,1.8
		c-0.2,5.4,3.7,8.5,10.3,9.4"/>
	<path class="st1" d="M-398.1,412c1.1-5.9-3.8-11.4-10.9-11.4c-6.7,0-8.8,2-10.6,7.8c-0.2,0.6-0.3,1.2-0.3,1.8
		c-0.2,5.4,3.7,8.5,10.3,9.4"/>
	<path class="st1" d="M-398.1,450c1.1-5.9-3.8-11.4-10.9-11.4c-6.7,0-8.8,2-10.6,7.8c-0.2,0.6-0.3,1.2-0.3,1.8
		c-0.2,5.4,3.7,8.5,10.3,9.4"/>
	<path class="st2" d="M-391.6-93.3h344.5c10.8,0,19.5,8.7,19.5,19.5V444c0,10.8-8.7,19.5-19.5,19.5h-344.5
		c-10.8,0-19.5-8.7-19.5-19.5V-73.8C-411.1-84.5-402.3-93.3-391.6-93.3z"/>
	<line class="st3" x1="-409.7" y1="119.7" x2="-30" y2="119.7"/>
	<line class="st3" x1="-409.7" y1="147.1" x2="-30" y2="147.1"/>
	<line class="st3" x1="-409.7" y1="173.5" x2="-30" y2="173.5"/>
	<line class="st3" x1="-409.7" y1="199.8" x2="-30" y2="199.8"/>
	<line class="st3" x1="-409.7" y1="226.2" x2="-30" y2="226.2"/>
	<line class="st3" x1="-409.7" y1="252.6" x2="-30" y2="252.6"/>
	<line class="st3" x1="-409.7" y1="279.9" x2="-30" y2="279.9"/>
	<line class="st3" x1="-409.7" y1="306.3" x2="-30" y2="306.3"/>
	<line class="st3" x1="-409.7" y1="332.7" x2="-30" y2="332.7"/>
	<line class="st3" x1="-409.7" y1="359" x2="-30" y2="359"/>
	<line class="st3" x1="-409.7" y1="385.4" x2="-30" y2="385.4"/>
	<line class="st3" x1="-409.7" y1="412.8" x2="-30" y2="412.8"/>
	<line class="st3" x1="-409.7" y1="439.2" x2="-30" y2="439.2"/>
	<path class="st0" d="M-395.5-5.3c0,1.5-1.4,2.7-3.2,2.7c-1.7,0-3.2-1.2-3.2-2.7c0-1.5,1.4-2.7,3.2-2.7
		C-396.9-8-395.5-6.8-395.5-5.3z"/>
	<path class="st1" d="M-398.9-3.6c1.1-5.9-3.8-11.4-10.7-11.4c-6.6,0-8.6,2-10.5,7.8c-0.2,0.6-0.3,1.2-0.3,1.7
		C-420.5,0-416.7,3-410.2,4"/>
	<path class="st0" d="M-395.5-5.3c0,1.5-1.4,2.7-3.2,2.7c-1.7,0-3.2-1.2-3.2-2.7c0-1.5,1.4-2.7,3.2-2.7
		C-396.9-8-395.5-6.8-395.5-5.3z"/>
	<path class="st1" d="M-398.9-3.6c1.1-5.9-3.8-11.4-10.7-11.4c-6.6,0-8.6,2-10.5,7.8c-0.2,0.6-0.3,1.2-0.3,1.7
		C-420.5,0-416.7,3-410.2,4"/>
	<path class="st0" d="M-395.1,32.7c0,1.5-1.4,2.7-3.2,2.7c-1.7,0-3.2-1.2-3.2-2.7c0-1.5,1.4-2.7,3.2-2.7
		C-396.5,30-395.1,31.2-395.1,32.7z"/>
	<path class="st1" d="M-398.5,34.3c1.1-5.9-3.8-11.4-10.7-11.4c-6.6,0-8.6,2-10.5,7.8c-0.2,0.6-0.3,1.2-0.3,1.7
		c-0.2,5.4,3.6,8.5,10.1,9.4"/>
	<path class="st0" d="M-395.1,66.6c0,1.5-1.4,2.7-3.2,2.7c-1.7,0-3.2-1.2-3.2-2.7c0-1.5,1.4-2.7,3.2-2.7
		C-396.5,63.9-395.1,65.1-395.1,66.6z"/>
	<path class="st1" d="M-398.5,68.2c1.1-5.9-3.8-11.4-10.7-11.4c-6.6,0-8.6,2-10.5,7.8c-0.2,0.6-0.3,1.2-0.3,1.7
		c-0.2,5.4,3.6,8.5,10.1,9.4"/>
	<path class="st0" d="M-394.7,104.6c0,1.5-1.4,2.7-3.2,2.7c-1.7,0-3.2-1.2-3.2-2.7c0-1.5,1.4-2.7,3.2-2.7
		C-396.1,101.9-394.7,103.1-394.7,104.6z"/>
	<path class="st1" d="M-398.1,106.2c1.1-5.9-3.8-11.4-10.7-11.4c-6.6,0-8.6,2-10.5,7.8c-0.2,0.6-0.3,1.2-0.3,1.7
		c-0.2,5.4,3.6,8.5,10.1,9.4"/>
	<path class="st0" d="M-397.6-76.6c0,1.5-1.4,2.7-3.2,2.7c-1.7,0-3.2-1.2-3.2-2.7c0-1.5,1.4-2.7,3.2-2.7
		C-399-79.3-397.6-78.1-397.6-76.6z"/>
	<path class="st1" d="M-401-74.9c1.1-5.9-3.8-11.4-10.7-11.4c-6.6,0-8.6,2-10.5,7.8c-0.2,0.6-0.3,1.2-0.3,1.7
		c-0.2,5.4,3.6,8.5,10.1,9.4"/>
	<path class="st0" d="M-397.2-38.6c0,1.5-1.4,2.7-3.2,2.7c-1.7,0-3.2-1.2-3.2-2.7c0-1.5,1.4-2.7,3.2-2.7
		C-398.6-41.3-397.2-40.1-397.2-38.6z"/>
	<path class="st1" d="M-400.6-37c1.1-5.9-3.8-11.4-10.7-11.4c-6.6,0-8.6,2-10.5,7.8c-0.2,0.6-0.3,1.2-0.3,1.7
		c-0.2,5.4,3.6,8.5,10.1,9.4"/>
	<path class="st0" d="M-395.1,32.7c0,1.5-1.4,2.7-3.2,2.7c-1.7,0-3.2-1.2-3.2-2.7c0-1.5,1.4-2.7,3.2-2.7
		C-396.5,30-395.1,31.2-395.1,32.7z"/>
	<path class="st1" d="M-398.5,34.3c1.1-5.9-3.8-11.4-10.7-11.4c-6.6,0-8.6,2-10.5,7.8c-0.2,0.6-0.3,1.2-0.3,1.7
		c-0.2,5.4,3.6,8.5,10.1,9.4"/>
	<path class="st0" d="M-394.7,143.6c0,1.5-1.4,2.7-3.2,2.7c-1.7,0-3.2-1.2-3.2-2.7c0-1.5,1.4-2.7,3.2-2.7
		C-396.1,140.9-394.7,142.1-394.7,143.6z"/>
	<path class="st1" d="M-398.1,145.2c1.1-5.9-3.8-11.4-10.7-11.4c-6.6,0-8.6,2-10.5,7.8c-0.2,0.6-0.3,1.2-0.3,1.7
		c-0.2,5.4,3.6,8.5,10.1,9.4"/>
	<path class="st0" d="M-395.1,181.6c0,1.5-1.4,2.7-3.2,2.7c-1.7,0-3.2-1.2-3.2-2.7c0-1.5,1.4-2.7,3.2-2.7
		C-396.5,178.8-395.1,180.1-395.1,181.6z"/>
	<path class="st1" d="M-398.5,183.2c1.1-5.9-3.8-11.4-10.7-11.4c-6.6,0-8.6,2-10.5,7.8c-0.2,0.6-0.3,1.2-0.3,1.7
		c-0.2,5.4,3.6,8.5,10.1,9.4"/>
	<path class="st0" d="M-394.7,219.5c0,1.5-1.4,2.7-3.2,2.7c-1.7,0-3.2-1.2-3.2-2.7c0-1.5,1.4-2.7,3.2-2.7
		C-396.1,216.8-394.7,218-394.7,219.5z"/>
	<path class="st1" d="M-398.1,221.2c1.1-5.9-3.8-11.4-10.7-11.4c-6.6,0-8.6,2-10.5,7.8c-0.2,0.6-0.3,1.2-0.3,1.7
		c-0.2,5.4,3.6,8.5,10.1,9.4"/>
	<path class="st0" d="M-394.7,258.6c0,1.5-1.4,2.7-3.2,2.7c-1.7,0-3.2-1.2-3.2-2.7c0-1.5,1.4-2.7,3.2-2.7
		C-396.1,255.9-394.7,257.1-394.7,258.6z"/>
	<path class="st1" d="M-398.1,260.2c1.1-5.9-3.8-11.4-10.7-11.4c-6.6,0-8.6,2-10.5,7.8c-0.2,0.6-0.3,1.2-0.3,1.7
		c-0.2,5.4,3.6,8.5,10.1,9.4"/>
	<path class="st0" d="M-395.1,296.5c0,1.5-1.4,2.7-3.2,2.7c-1.7,0-3.2-1.2-3.2-2.7c0-1.5,1.4-2.7,3.2-2.7
		C-396.5,293.8-395.1,295-395.1,296.5z"/>
	<path class="st1" d="M-398.5,298.1c1.1-5.9-3.8-11.4-10.7-11.4c-6.6,0-8.6,2-10.5,7.8c-0.2,0.6-0.3,1.2-0.3,1.7
		c-0.2,5.4,3.6,8.5,10.1,9.4"/>
	<path class="st0" d="M-394.7,334.5c0,1.5-1.4,2.7-3.2,2.7c-1.7,0-3.2-1.2-3.2-2.7c0-1.5,1.4-2.7,3.2-2.7
		C-396.1,331.8-394.7,333-394.7,334.5z"/>
	<path class="st1" d="M-398.1,336.1c1.1-5.9-3.8-11.4-10.7-11.4c-6.6,0-8.6,2-10.5,7.8c-0.2,0.6-0.3,1.2-0.3,1.7
		c-0.2,5.4,3.6,8.5,10.1,9.4"/>
	<path class="st0" d="M-395.1,372.4c0,1.5-1.4,2.7-3.2,2.7c-1.7,0-3.2-1.2-3.2-2.7c0-1.5,1.4-2.7,3.2-2.7
		C-396.5,369.7-395.1,370.9-395.1,372.4z"/>
	<path class="st1" d="M-398.5,374.1c1.1-5.9-3.8-11.4-10.7-11.4c-6.6,0-8.6,2-10.5,7.8c-0.2,0.6-0.3,1.2-0.3,1.7
		c-0.2,5.4,3.6,8.5,10.1,9.4"/>
	<path class="st0" d="M-395.1,410.4c0,1.5-1.4,2.7-3.2,2.7c-1.7,0-3.2-1.2-3.2-2.7c0-1.5,1.4-2.7,3.2-2.7
		C-396.5,407.7-395.1,408.9-395.1,410.4z"/>
	<path class="st1" d="M-398.5,412c1.1-5.9-3.8-11.4-10.7-11.4c-6.6,0-8.6,2-10.5,7.8c-0.2,0.6-0.3,1.2-0.3,1.7
		c-0.2,5.4,3.6,8.5,10.1,9.4"/>
	<path class="st0" d="M-395.1,448.4c0,1.5-1.4,2.7-3.2,2.7c-1.7,0-3.2-1.2-3.2-2.7c0-1.5,1.4-2.7,3.2-2.7
		C-396.5,445.6-395.1,446.9-395.1,448.4z"/>
	<path class="st1" d="M-398.5,450c1.1-5.9-3.8-11.4-10.7-11.4c-6.6,0-8.6,2-10.5,7.8c-0.2,0.6-0.3,1.2-0.3,1.7
		c-0.2,5.4,3.6,8.5,10.1,9.4"/>
</g>
</svg>
