<svg width="70" height="78" viewBox="0 0 70 78" fill="none" xmlns="http://www.w3.org/2000/svg">
<mask id="path-1-inside-1_218_470" fill="white">
<path d="M0.580505 10.5161V75.809C1.56786 75.4521 2.87518 75.031 4.58476 74.5826C9.96948 73.1548 8.5753 74.2256 13.5578 74.9395C18.5448 75.6534 20.1401 74.9395 20.9355 74.5826C21.7354 74.2256 32.3037 76.0104 35.2932 76.7242C38.2827 77.4381 46.0626 74.5826 46.0626 74.5826C46.0626 74.5826 54.4368 76.7242 57.632 76.7242C60.8272 76.7242 61.6226 74.2256 64.2143 74.2256C65.4942 74.2256 67.4964 73.3562 69.2014 72.4775V10.5161H0.580505Z"/>
</mask>
<path d="M0.580505 10.5161V75.809C1.56786 75.4521 2.87518 75.031 4.58476 74.5826C9.96948 73.1548 8.5753 74.2256 13.5578 74.9395C18.5448 75.6534 20.1401 74.9395 20.9355 74.5826C21.7354 74.2256 32.3037 76.0104 35.2932 76.7242C38.2827 77.4381 46.0626 74.5826 46.0626 74.5826C46.0626 74.5826 54.4368 76.7242 57.632 76.7242C60.8272 76.7242 61.6226 74.2256 64.2143 74.2256C65.4942 74.2256 67.4964 73.3562 69.2014 72.4775V10.5161H0.580505Z" fill="url(#paint0_radial_218_470)"/>
<path d="M0.580505 10.5161V10.0161H0.0805054V10.5161H0.580505ZM0.580505 75.809H0.0805054V76.5214L0.750495 76.2792L0.580505 75.809ZM4.58476 74.5826L4.71163 75.0662L4.71291 75.0659L4.58476 74.5826ZM13.5578 74.9395L13.4869 75.4345L13.4869 75.4345L13.5578 74.9395ZM20.9355 74.5826L20.7317 74.126L20.7308 74.1264L20.9355 74.5826ZM46.0626 74.5826L46.1865 74.0982L46.0361 74.0597L45.8904 74.1132L46.0626 74.5826ZM69.2014 72.4775L69.4304 72.922L69.7014 72.7824V72.4775H69.2014ZM69.2014 10.5161H69.7014V10.0161H69.2014V10.5161ZM0.0805054 10.5161V75.809H1.08051V10.5161H0.0805054ZM0.750495 76.2792C1.72308 75.9276 3.01599 75.511 4.71163 75.0662L4.45789 74.0989C2.73438 74.5511 1.41263 74.9765 0.410515 75.3388L0.750495 76.2792ZM4.71291 75.0659C7.40397 74.3523 8.30362 74.2937 9.12954 74.4493C9.57767 74.5337 9.98673 74.6752 10.6794 74.8642C11.351 75.0474 12.2184 75.2527 13.4869 75.4345L13.6287 74.4446C12.4059 74.2694 11.5792 74.0731 10.9426 73.8994C10.3271 73.7315 9.81391 73.5606 9.31468 73.4666C8.24589 73.2652 7.15027 73.3851 4.45661 74.0993L4.71291 75.0659ZM13.4869 75.4345C16.0088 75.7955 17.7002 75.7996 18.8777 75.6591C20.069 75.5169 20.7184 75.2281 21.1402 75.0387L20.7308 74.1264C20.3572 74.294 19.8112 74.5406 18.7592 74.6661C17.6935 74.7933 16.0938 74.7975 13.6286 74.4446L13.4869 75.4345ZM21.1392 75.0392C21.0961 75.0584 21.1001 75.0456 21.2217 75.0393C21.3214 75.0341 21.4598 75.0347 21.6379 75.0424C21.9927 75.0577 22.4699 75.0995 23.0405 75.1632C24.1797 75.2902 25.6608 75.5009 27.2155 75.7458C30.3285 76.2361 33.7021 76.8584 35.1771 77.2106L35.4093 76.2379C33.8948 75.8762 30.4895 75.2492 27.3711 74.7579C25.81 74.512 24.3121 74.2988 23.1514 74.1693C22.572 74.1047 22.069 74.0601 21.681 74.0433C21.4877 74.035 21.3141 74.0331 21.1697 74.0406C21.0472 74.047 20.8749 74.0621 20.7317 74.126L21.1392 75.0392ZM35.1771 77.2106C36.0215 77.4122 37.1473 77.3546 38.3091 77.1856C39.486 77.0143 40.7598 76.7189 41.929 76.4039C43.1 76.0885 44.1752 75.7509 44.9572 75.4923C45.3485 75.363 45.667 75.2532 45.888 75.1757C45.9986 75.1369 46.0848 75.1062 46.1436 75.085C46.1731 75.0744 46.1956 75.0663 46.211 75.0607C46.2186 75.0579 46.2245 75.0558 46.2285 75.0543C46.2305 75.0536 46.2321 75.053 46.2331 75.0526C46.2337 75.0524 46.2341 75.0523 46.2344 75.0522C46.2345 75.0521 46.2347 75.0521 46.2347 75.052C46.2348 75.052 46.2349 75.052 46.0626 74.5826C45.8904 74.1132 45.8904 74.1132 45.8904 74.1132C45.8903 74.1132 45.8903 74.1132 45.8902 74.1133C45.89 74.1133 45.8897 74.1134 45.8893 74.1136C45.8885 74.1139 45.8872 74.1143 45.8855 74.115C45.882 74.1163 45.8766 74.1182 45.8695 74.1208C45.8552 74.126 45.8337 74.1338 45.8054 74.1439C45.7488 74.1643 45.665 74.1942 45.557 74.2321C45.3409 74.3079 45.0282 74.4157 44.6434 74.5429C43.8732 74.7975 42.8167 75.1291 41.6689 75.4383C40.5195 75.748 39.2877 76.0326 38.1651 76.196C37.0274 76.3615 36.0597 76.3932 35.4093 76.2379L35.1771 77.2106ZM46.0626 74.5826C45.9388 75.067 45.9388 75.067 45.9389 75.067C45.939 75.067 45.9391 75.0671 45.9392 75.0671C45.9395 75.0672 45.9399 75.0673 45.9405 75.0674C45.9415 75.0677 45.9431 75.0681 45.9452 75.0686C45.9493 75.0697 45.9555 75.0713 45.9636 75.0733C45.9798 75.0774 46.0037 75.0835 46.035 75.0914C46.0977 75.1072 46.1897 75.1304 46.3079 75.1598C46.5443 75.2186 46.8852 75.3026 47.3041 75.4034C48.1418 75.6048 49.2926 75.8735 50.5441 76.1423C53.0258 76.6752 55.9717 77.2242 57.632 77.2242V76.2242C56.0972 76.2242 53.2584 75.7024 50.7541 75.1646C49.5127 74.8979 48.3702 74.6312 47.5379 74.4311C47.1219 74.331 46.7836 74.2477 46.5495 74.1894C46.4325 74.1603 46.3415 74.1374 46.2799 74.1219C46.2491 74.1141 46.2256 74.1081 46.2099 74.1041C46.2021 74.1021 46.1962 74.1006 46.1923 74.0996C46.1903 74.0991 46.1888 74.0988 46.1879 74.0985C46.1874 74.0984 46.187 74.0983 46.1868 74.0982C46.1867 74.0982 46.1866 74.0982 46.1866 74.0982C46.1865 74.0982 46.1865 74.0982 46.0626 74.5826ZM57.632 77.2242C59.3858 77.2242 60.4887 76.5264 61.4299 75.8889C62.3759 75.2481 63.0968 74.7256 64.2143 74.7256V73.7256C62.7401 73.7256 61.7674 74.4525 60.869 75.061C59.9658 75.6728 59.0734 76.2242 57.632 76.2242V77.2242ZM64.2143 74.7256C64.9471 74.7256 65.8366 74.4816 66.7238 74.1493C67.6229 73.8126 68.5688 73.366 69.4304 72.922L68.9723 72.0331C68.1289 72.4677 67.2213 72.8952 66.3731 73.2128C65.513 73.535 64.7615 73.7256 64.2143 73.7256V74.7256ZM69.7014 72.4775V10.5161H68.7014V72.4775H69.7014ZM69.2014 10.0161H0.580505V11.0161H69.2014V10.0161Z" fill="#7C7A7A" mask="url(#path-1-inside-1_218_470)"/>
<path d="M36.1304 13.7224C36.0729 13.6555 35.958 13.5218 35.7857 13.4549C35.6708 13.388 35.4985 13.388 35.3836 13.388L35.2687 13.3212L33.3156 19.2723C33.2581 19.4729 33.4305 19.7404 33.6602 19.8073C33.9475 19.941 34.1772 19.8741 34.2347 19.6735L36.2453 13.7224H36.1304Z" fill="url(#paint1_linear_218_470)"/>
<path d="M36.2453 13.3211L36.1878 13.2543C36.1304 13.1874 36.0729 13.1874 36.0155 13.1205C35.958 13.1205 35.958 13.0537 35.9006 13.0537C35.7857 12.9868 35.6708 12.9868 35.6134 12.9868C35.5559 12.9868 35.5559 12.9868 35.4985 12.9868L35.3261 12.9199L34.1772 16.5307C34.3496 16.7313 34.5794 16.9319 34.8091 17.1325C34.924 17.2663 34.9815 17.3331 35.0964 17.3331L36.475 13.388L36.2453 13.3211Z" fill="url(#paint2_linear_218_470)"/>
<path d="M40.4962 14.7921C40.4962 14.7921 40.4962 14.7253 40.5536 14.7253C40.7834 14.0566 41.1855 12.2512 39.9217 10.5127C39.5196 9.71025 38.6579 8.90785 37.509 8.43978C36.3601 7.90485 35.2687 7.83798 34.5219 8.10545C32.5688 8.37291 31.822 10.0446 31.5922 10.7133V10.7801C31.5922 10.847 31.4199 11.4488 31.4199 11.4488C30.9604 13.1873 32.5114 15.394 34.8666 16.4638C37.2218 17.5337 39.6345 17.0656 40.3238 15.394C40.2664 15.394 40.4962 14.859 40.4962 14.7921Z" fill="#242521"/>
<path d="M40.4961 14.7253C40.4961 14.7253 40.4961 14.6584 40.5536 14.6584C40.7834 13.9897 41.4152 11.6494 40.094 9.91085C39.6919 9.10845 38.8302 8.30604 37.6813 7.83798C36.5325 7.30304 35.441 7.23617 34.6368 7.50364C32.7411 7.77111 31.822 9.97772 31.5922 10.6464V10.7133C31.5922 10.7801 31.5922 10.7801 31.5922 10.7801C31.1327 12.5187 32.6837 14.7253 35.0389 15.7951C37.3941 16.865 39.8642 16.397 40.4961 14.7921C40.4961 14.7921 40.4961 14.7921 40.4961 14.7253Z" fill="#242521"/>
<path d="M38.6004 8.4398C36.8196 7.03559 34.924 6.76812 34.407 7.83799C33.89 8.90787 34.8091 10.9139 36.475 12.3181C38.1409 13.6554 39.9216 13.9229 40.5535 12.853C41.2429 11.7831 40.3812 9.844 38.6004 8.4398Z" fill="#3B3D37"/>
<path d="M41.0706 4.22702C40.6685 3.75896 40.0366 3.29089 39.2898 2.95655C38.5431 2.62222 37.7963 2.48848 37.2218 2.48848L36.3027 2.08728L34.4645 8.43965C34.1773 9.37578 35.0964 10.6463 36.5325 11.2481C37.9686 11.9167 39.4047 11.6493 39.7494 10.78L42.0472 4.62823L41.0706 4.22702Z" fill="#242521"/>
<path d="M37.2793 2.28788C37.4516 2.28788 37.6814 2.28788 37.8537 2.28788L35.3836 10.3119C35.039 9.97759 34.7517 9.64325 34.6368 9.30892L36.7623 2.08728L37.2793 2.28788Z" fill="#242521"/>
<path d="M36.2453 2.15436L35.4985 4.82904C35.9006 5.69831 36.6474 6.63445 37.5665 7.36998C38.6005 8.17239 39.692 8.64046 40.5537 8.64046L41.6451 5.69831C41.243 4.96277 40.5537 4.16037 39.692 3.4917C38.4282 2.55556 37.1644 2.08749 36.2453 2.15436Z" fill="#242521"/>
<mask id="path-11-inside-2_218_470" fill="white">
<path d="M36.7623 1.61926C37.5666 1.55239 38.5431 1.75299 39.5771 2.22106C40.6111 2.68913 41.4153 3.29093 41.9898 3.9596L43.2536 4.49454L42.6217 6.09935C42.1621 7.30295 40.1516 7.50356 38.0836 6.56742C36.073 5.63128 34.6943 3.89274 35.039 2.68913L35.4985 1.01746L36.7623 1.61926Z"/>
</mask>
<path d="M36.7623 1.61926C37.5666 1.55239 38.5431 1.75299 39.5771 2.22106C40.6111 2.68913 41.4153 3.29093 41.9898 3.9596L43.2536 4.49454L42.6217 6.09935C42.1621 7.30295 40.1516 7.50356 38.0836 6.56742C36.073 5.63128 34.6943 3.89274 35.039 2.68913L35.4985 1.01746L36.7623 1.61926Z" fill="#242521"/>
<path d="M36.7623 1.61926L36.7406 1.66485L36.7529 1.67071L36.7665 1.66958L36.7623 1.61926ZM41.9898 3.9596L41.9515 3.99251L41.9592 4.00149L41.9701 4.00611L41.9898 3.9596ZM43.2536 4.49454L43.3006 4.51304L43.3186 4.46723L43.2733 4.44804L43.2536 4.49454ZM42.6217 6.09935L42.5747 6.08085L42.5745 6.08134L42.6217 6.09935ZM38.0836 6.56742L38.0622 6.6132L38.0627 6.61342L38.0836 6.56742ZM35.039 2.68913L35.0875 2.70303L35.0877 2.70252L35.039 2.68913ZM35.4985 1.01746L35.5203 0.971866L35.4658 0.945951L35.4499 1.00407L35.4985 1.01746ZM36.7665 1.66958C37.5598 1.60363 38.5276 1.80139 39.5563 2.26706L39.5979 2.17506C38.5587 1.7046 37.5733 1.50116 36.7581 1.56894L36.7665 1.66958ZM39.5563 2.26706C40.5845 2.73251 41.3825 3.33014 41.9515 3.99251L42.0281 3.9267C41.4482 3.25173 40.6377 2.64575 39.5979 2.17506L39.5563 2.26706ZM41.9701 4.00611L43.2339 4.54104L43.2733 4.44804L42.0095 3.9131L41.9701 4.00611ZM43.2066 4.47604L42.5747 6.08085L42.6687 6.11785L43.3006 4.51304L43.2066 4.47604ZM42.5745 6.08134C42.3543 6.65806 41.7595 7.00297 40.9507 7.08555C40.1429 7.16803 39.1322 6.98669 38.1044 6.52142L38.0627 6.61342C39.1029 7.08428 40.1315 7.27071 40.9609 7.18602C41.7893 7.10144 42.4295 6.74424 42.6689 6.11736L42.5745 6.08134ZM38.1049 6.52164C37.1059 6.05652 36.2652 5.39253 35.7177 4.69733C35.1687 4.00012 34.9218 3.28162 35.0875 2.70303L34.9904 2.67523C34.8115 3.30024 35.0816 4.05282 35.6384 4.75982C36.1967 5.46882 37.0506 6.14218 38.0622 6.61319L38.1049 6.52164ZM35.0877 2.70252L35.5472 1.03084L35.4499 1.00407L34.9903 2.67575L35.0877 2.70252ZM35.4768 1.06305L36.7406 1.66485L36.784 1.57367L35.5203 0.971866L35.4768 1.06305Z" fill="black" mask="url(#path-11-inside-2_218_470)"/>
<path d="M43.2535 4.49453C42.794 5.69813 40.726 5.89873 38.658 4.9626C36.59 4.02646 35.1538 2.28792 35.4985 1.08431C35.8432 -0.119297 37.9112 -0.386765 40.0941 0.61624C42.277 1.55238 43.7131 3.29092 43.2535 4.49453Z" fill="url(#paint3_radial_218_470)"/>
<path d="M43.0237 4.1603C42.5642 5.29704 40.6685 5.49764 38.7728 4.62837C36.8197 3.7591 35.4985 2.15429 35.8431 1.01755C36.1878 -0.11919 38.0835 -0.319791 40.094 0.616347C42.1046 1.55249 43.4258 3.09043 43.0237 4.1603Z" fill="#242521"/>
<defs>
<radialGradient id="paint0_radial_218_470" cx="0" cy="0" r="1" gradientUnits="userSpaceOnUse" gradientTransform="translate(35.5151 19.8766) scale(38.5053 77.0966)">
<stop stop-color="#6D94AB"/>
<stop offset="0.708333" stop-color="#6D94AB"/>
<stop offset="0.895833" stop-color="#6D94AB"/>
</radialGradient>
<linearGradient id="paint1_linear_218_470" x1="35.2684" y1="16.8993" x2="34.1556" y2="16.5329" gradientUnits="userSpaceOnUse">
<stop offset="0.1128" stop-color="#DDDDDF"/>
<stop offset="0.1338" stop-color="#D0D1D2"/>
<stop offset="0.1951" stop-color="#AEB2B3"/>
<stop offset="0.2537" stop-color="#969B9C"/>
<stop offset="0.3078" stop-color="#888E8E"/>
<stop offset="0.3533" stop-color="#838989"/>
<stop offset="0.4492" stop-color="#868C8C"/>
<stop offset="0.5265" stop-color="#909595"/>
<stop offset="0.5973" stop-color="#A1A5A5"/>
<stop offset="0.6638" stop-color="#B9BABA"/>
<stop offset="0.6976" stop-color="#C8C8C8"/>
<stop offset="0.8821" stop-color="#E1E1E1"/>
</linearGradient>
<linearGradient id="paint2_linear_218_470" x1="35.7861" y1="15.3421" x2="34.6669" y2="14.9736" gradientUnits="userSpaceOnUse">
<stop offset="0.1128" stop-color="#BCBCBE"/>
<stop offset="0.1338" stop-color="#AFB0B1"/>
<stop offset="0.1951" stop-color="#8D9192"/>
<stop offset="0.2537" stop-color="#767A7B"/>
<stop offset="0.3078" stop-color="#676D6D"/>
<stop offset="0.3533" stop-color="#626868"/>
<stop offset="0.438" stop-color="#656B6B"/>
<stop offset="0.5063" stop-color="#6F7474"/>
<stop offset="0.5688" stop-color="#808484"/>
<stop offset="0.6279" stop-color="#989B9B"/>
<stop offset="0.6841" stop-color="#B6B7B7"/>
<stop offset="0.6976" stop-color="#BFBFBF"/>
<stop offset="0.8821" stop-color="#BDBDBD"/>
</linearGradient>
<radialGradient id="paint3_radial_218_470" cx="0" cy="0" r="1" gradientUnits="userSpaceOnUse" gradientTransform="translate(36.4623 12.6606) scale(0.033539 0.0390403)">
<stop stop-color="white"/>
<stop offset="0.00738025" stop-color="#F6F9F7"/>
<stop offset="0.0476763" stop-color="#C8DACE"/>
<stop offset="0.0930898" stop-color="#9DBDA7"/>
<stop offset="0.1419" stop-color="#77A385"/>
<stop offset="0.195" stop-color="#578D68"/>
<stop offset="0.2537" stop-color="#3B7B4F"/>
<stop offset="0.32" stop-color="#256C3C"/>
<stop offset="0.3974" stop-color="#14612C"/>
<stop offset="0.4931" stop-color="#095922"/>
<stop offset="0.6274" stop-color="#02541C"/>
<stop offset="1" stop-color="#484A3F"/>
</radialGradient>
</defs>
</svg>
