<svg width="197" height="198" viewBox="0 0 197 198" fill="none" xmlns="http://www.w3.org/2000/svg">
<path d="M0.987061 98.6719C0.987061 149.348 39.0031 191.058 87.9021 196.607C88.3452 196.656 88.8377 196.706 89.2809 196.755C92.4817 197.052 95.7318 197.25 98.9819 197.25C105.039 197.25 111.047 196.706 116.808 195.616C117.448 195.517 118.039 195.368 118.679 195.269C127.642 193.436 136.161 190.365 144.04 186.253C144.532 186.006 144.975 185.758 145.468 185.51C155.661 179.962 164.771 172.68 172.404 164.011C172.749 163.615 173.094 163.268 173.389 162.872C188.113 145.633 196.977 123.193 196.977 98.7214C196.977 44.2803 153.101 0.142883 98.9819 0.142883C44.8631 0.142883 0.987061 44.2308 0.987061 98.6719Z" fill="#334E5E"/>
<path d="M87.7543 194.625C87.7543 194.774 87.7543 194.972 87.7543 195.12C87.7543 195.22 87.7543 195.368 87.7543 195.517C87.7543 195.616 87.7543 195.715 87.7543 195.814C87.7543 196.111 87.8035 196.359 87.8527 196.656C88.2959 196.706 88.7884 196.755 89.2316 196.805C88.1482 190.167 92.7279 182.637 94.7961 176.693C96.0764 173.076 96.5689 169.361 95.9287 165.547C95.2393 161.485 93.5158 157.72 92.7279 153.707C91.0536 145.039 96.5196 137.806 97.5537 129.484C98.0954 125.174 97.406 120.865 96.7166 116.604C95.9779 111.948 95.3378 107.341 95.4855 102.585C95.7317 94.1145 97.8984 85.8419 101.641 78.2627C101.789 77.9655 101.936 77.7178 102.084 77.4206C102.084 77.371 102.133 77.3215 102.133 77.3215C102.183 77.3215 102.232 77.272 102.281 77.2225C102.872 76.8262 103.463 76.5289 104.054 76.3308C105.433 75.8849 106.91 76.0335 108.24 76.628C108.978 76.9252 109.668 77.4206 110.308 77.9655C110.702 78.3123 111.096 78.7085 111.391 79.1544C113.312 81.7303 113.952 85.0493 114.001 88.2196C114.1 94.0155 112.425 99.6627 112.081 105.409C111.785 110.313 113.065 114.771 114.74 119.329C116.611 124.382 118.236 129.286 117.153 134.735C116.217 139.49 114.05 143.949 113.459 148.754C112.819 153.955 113.853 159.206 115.134 164.259C117.694 174.117 122.323 185.857 116.759 195.517C117.399 195.418 117.99 195.269 118.63 195.17C118.728 194.972 118.827 194.774 118.925 194.575C119.122 194.179 119.27 193.783 119.418 193.337C119.516 193.139 119.566 192.941 119.615 192.743C119.664 192.544 119.763 192.346 119.812 192.148C119.812 192.148 119.812 192.148 119.812 192.099C119.861 191.95 119.91 191.801 119.96 191.653C120.009 191.554 120.009 191.405 120.058 191.306C120.107 191.157 120.107 191.058 120.157 190.91C120.157 190.86 120.206 190.811 120.206 190.761C120.255 190.613 120.304 190.414 120.304 190.266C120.304 190.216 120.304 190.167 120.304 190.167C120.354 189.77 120.452 189.374 120.501 189.027C120.551 188.78 120.6 188.532 120.6 188.284C120.6 188.136 120.649 187.987 120.649 187.838C120.649 187.789 120.649 187.739 120.649 187.69C120.649 187.541 120.698 187.393 120.698 187.244C120.698 187.095 120.698 186.996 120.748 186.848C120.748 186.551 120.797 186.204 120.797 185.907C120.797 185.659 120.797 185.411 120.797 185.163C120.797 178.03 118.285 170.649 116.513 163.962C114.789 157.274 114.001 150.785 115.971 144.048C117.448 138.846 119.566 133.794 118.827 128.295C118.039 122.598 115.084 117.595 113.952 111.997C112.672 105.657 114.494 99.3159 115.183 92.9752C115.725 88.0215 115.626 82.4238 112.524 78.2627C112.425 78.1141 112.278 77.916 112.13 77.7674C112.031 77.6683 111.982 77.5692 111.884 77.4702C111.834 77.3711 111.736 77.3215 111.637 77.2225C111.539 77.1234 111.49 77.0739 111.391 76.9748C111.293 76.8757 111.194 76.7766 111.096 76.7271C110.997 76.628 110.899 76.5785 110.8 76.4794C110.702 76.3803 110.603 76.3308 110.505 76.2317C110.406 76.1822 110.308 76.0831 110.209 76.0336C109.963 75.885 109.766 75.7363 109.52 75.6372C109.421 75.5877 109.323 75.5382 109.224 75.4887C109.126 75.4391 109.028 75.3896 108.88 75.34C108.634 75.241 108.338 75.0924 108.092 74.9933C107.993 74.9438 107.895 74.9437 107.796 74.8942C107.698 74.8942 107.649 74.8447 107.55 74.8447C107.501 74.8447 107.501 74.8447 107.452 74.8447C107.353 74.7951 107.205 74.7952 107.058 74.7456C107.009 74.7456 107.009 74.7456 106.959 74.696C106.812 74.696 106.664 74.6465 106.516 74.6465C106.368 74.6465 106.221 74.597 106.073 74.597H106.024C105.433 74.5474 104.842 74.597 104.202 74.696C104.005 74.7456 103.857 74.7456 103.66 74.7951C103.561 74.7951 103.463 74.8447 103.414 74.8942C103.364 74.8942 103.315 74.8942 103.315 74.9437C103.266 74.9437 103.217 74.9933 103.168 74.9933C103.118 74.9933 103.02 75.0428 102.971 75.0924C102.429 75.2905 101.936 75.5877 101.444 75.9345C101.296 76.0335 101.198 76.1822 101.149 76.3308C101.001 76.3803 100.804 76.4794 100.705 76.6775C100.607 76.9252 100.459 77.1729 100.361 77.4206C100.311 77.5196 100.262 77.6683 100.164 77.7674C100.065 77.9655 99.9667 78.1141 99.9174 78.3123C98.9818 80.2937 98.1447 82.2752 97.406 84.3557C97.3568 84.5539 97.2583 84.7521 97.209 84.9502C97.1598 85.1484 97.0613 85.297 97.0121 85.4951C96.9136 85.7428 96.8151 85.9905 96.7659 86.2877C96.6181 86.7335 96.5196 87.1298 96.3719 87.5756C96.2734 87.8729 96.2242 88.1206 96.1257 88.4178C96.0272 88.715 95.978 89.0122 95.8795 89.2599C95.781 89.5571 95.7317 89.8544 95.6825 90.1516C95.6332 90.4488 95.5347 90.746 95.4855 91.0432C95.4363 91.3405 95.3378 91.6377 95.2885 91.8854C95.2885 91.8854 95.2885 91.8854 95.2885 91.9349C95.2393 92.2321 95.19 92.5294 95.0916 92.8266C95.0423 93.1238 94.9931 93.421 94.8946 93.7182C94.7961 94.2631 94.6976 94.7586 94.6484 95.3035C94.5499 95.9474 94.4514 96.5914 94.3529 97.2354C94.3037 97.5326 94.3037 97.8298 94.2544 98.127C94.2052 98.4243 94.2052 98.7215 94.1559 99.0187C94.1067 99.3655 94.1067 99.7122 94.0575 100.009C94.0082 100.554 94.0082 101.149 93.959 101.694C93.9097 102.288 93.9097 102.833 93.9097 103.427C93.9097 103.873 93.9097 104.369 93.9097 104.815C94.0082 114.425 97.8492 124.035 95.1408 133.546C93.959 137.707 92.0385 141.67 91.2013 145.98C90.4134 149.943 90.9551 153.708 92.0384 157.522C93.3188 161.931 95.0423 166.24 94.5991 170.897C94.1559 175.652 91.7922 179.962 90.0195 184.321C89.7732 184.916 89.527 185.56 89.2808 186.204C89.0346 186.848 88.8376 187.492 88.6407 188.136C88.5914 188.334 88.5422 188.582 88.4437 188.78C88.099 190.613 87.7543 192.644 87.7543 194.625Z" fill="#6E98C2"/>
<path d="M87.7543 194.625C87.7543 194.774 87.7543 194.972 87.7543 195.12C87.7543 195.219 87.7543 195.368 87.7543 195.517C87.7543 195.616 87.7543 195.715 87.7543 195.814C87.7543 196.111 87.8035 196.359 87.8527 196.656C88.2959 196.706 88.7884 196.755 89.2316 196.805C92.4324 197.102 95.6825 197.3 98.9326 197.3C104.99 197.3 110.997 196.755 116.759 195.665C117.399 195.566 117.99 195.418 118.63 195.319C118.728 195.12 118.827 194.922 118.925 194.724C119.122 194.328 119.27 193.932 119.418 193.486C119.516 193.288 119.566 193.089 119.615 192.891C119.664 192.693 119.763 192.495 119.812 192.297C119.812 192.297 119.812 192.297 119.812 192.247C119.861 192.099 119.91 191.95 119.96 191.801C120.009 191.702 120.009 191.554 120.058 191.455C120.107 191.306 120.107 191.207 120.157 191.058C120.157 191.009 120.206 190.959 120.206 190.91C120.255 190.761 120.304 190.563 120.304 190.414C120.304 190.365 120.304 190.315 120.304 190.315C120.354 189.919 120.452 189.523 120.501 189.176C120.551 188.928 120.6 188.681 120.6 188.433C120.6 188.284 120.649 188.136 120.649 187.987C120.649 187.938 120.649 187.888 120.649 187.838C120.649 187.69 120.698 187.541 120.698 187.393C120.698 187.244 120.698 187.145 120.748 186.996C120.748 186.699 120.797 186.352 120.797 186.055C120.797 185.807 120.797 185.56 120.797 185.312C120.797 178.179 118.285 170.798 116.513 164.11C114.789 157.423 114.001 150.933 115.971 144.196C117.448 138.995 119.566 133.942 118.827 128.444C118.039 122.747 115.084 117.744 113.952 112.146C112.672 105.805 114.494 99.4645 115.183 93.1238C115.725 88.1701 115.626 82.5724 112.524 78.4113C112.425 78.2627 112.278 78.0645 112.13 77.9159C112.031 77.8168 111.982 77.7178 111.884 77.6187C111.834 77.5196 111.736 77.4701 111.637 77.371C111.539 77.272 111.49 77.2224 111.391 77.1233C111.293 77.0243 111.194 76.9252 111.096 76.8757C110.997 76.7766 110.899 76.727 110.8 76.628C110.702 76.5289 110.603 76.4794 110.505 76.3803C110.406 76.3308 110.308 76.2317 110.209 76.1821C109.963 76.0335 109.766 75.8849 109.52 75.7859C109.421 75.7363 109.323 75.6868 109.224 75.6372C109.126 75.5877 109.028 75.5382 108.88 75.4887C108.634 75.3896 108.338 75.2409 108.092 75.1419C107.993 75.0923 107.895 75.0924 107.796 75.0428C107.698 75.0428 107.649 74.9933 107.55 74.9933C107.501 74.9933 107.501 74.9933 107.452 74.9933C107.353 74.9438 107.205 74.9437 107.058 74.8942C107.009 74.8942 107.009 74.8942 106.959 74.8447C106.812 74.8447 106.664 74.7951 106.516 74.7951C106.368 74.7951 106.221 74.7456 106.073 74.7456H106.024C105.433 74.6961 104.842 74.7456 104.202 74.8447C104.005 74.8942 103.857 74.8942 103.66 74.9437C103.561 74.9437 103.463 74.9933 103.414 75.0428C103.364 75.0428 103.315 75.0428 103.315 75.0923C103.266 75.0923 103.217 75.1419 103.168 75.1419C103.118 75.1419 103.02 75.1914 102.971 75.241C102.429 75.4391 101.936 75.7363 101.444 76.0831C101.296 76.1822 101.198 76.3308 101.149 76.4794C101.001 76.5289 100.804 76.628 100.705 76.8261C100.607 77.0738 100.459 77.3215 100.361 77.5692C100.311 77.6683 100.262 77.8168 100.164 77.9159C100.065 78.1141 99.9667 78.2627 99.9174 78.4609C98.9818 80.4424 98.1447 82.4238 97.406 84.5044C97.3568 84.7025 97.2583 84.9006 97.209 85.0988C97.1598 85.2969 97.0613 85.4456 97.0121 85.6437C96.9136 85.8914 96.8151 86.1391 96.7659 86.4363C96.6181 86.8821 96.5196 87.2784 96.3719 87.7243C96.2734 88.0215 96.2242 88.2691 96.1257 88.5664C96.0272 88.8636 95.978 89.1608 95.8795 89.4085C95.781 89.7058 95.7317 90.0029 95.6825 90.3002C95.6332 90.5974 95.5347 90.8946 95.4855 91.1919C95.4363 91.4891 95.3378 91.7863 95.2885 92.034C95.2885 92.034 95.2885 92.034 95.2885 92.0835C95.2393 92.3808 95.19 92.6779 95.0916 92.9752C95.0423 93.2724 94.9931 93.5696 94.8946 93.8669C94.7961 94.4118 94.6976 94.9071 94.6484 95.452C94.5499 96.096 94.4514 96.74 94.3529 97.384C94.3037 97.6812 94.3037 97.9784 94.2544 98.2757C94.2052 98.5729 94.2052 98.8701 94.1559 99.1673C94.1067 99.514 94.1067 99.8608 94.0575 100.158C94.0082 100.703 94.0082 101.297 93.959 101.842C93.9097 102.437 93.9097 102.982 93.9097 103.576C93.9097 104.022 93.9097 104.517 93.9097 104.963C94.0082 114.573 97.8492 124.183 95.1408 133.695C93.959 137.856 92.0385 141.819 91.2013 146.128C90.4134 150.091 90.9551 153.856 92.0384 157.67C93.3188 162.079 95.0423 166.389 94.5991 171.045C94.1559 175.801 91.7922 180.111 90.0195 184.47C89.7732 185.064 89.527 185.708 89.2808 186.352C89.0346 186.996 88.8376 187.64 88.6407 188.284C88.5914 188.482 88.5422 188.73 88.4437 188.928C88.099 190.613 87.7543 192.644 87.7543 194.625Z" fill="#6E98C2"/>
<path d="M144.04 126.858C145.566 132.605 144.877 137.608 143.104 143.156C141.528 148.258 140.445 153.014 140.642 158.364C140.839 164.061 141.627 169.708 142.218 175.355C142.562 178.773 142.415 182.984 143.99 186.204C144.483 185.956 144.926 185.708 145.419 185.461C144.04 182.637 144.089 179.07 143.744 175.851C143.203 170.649 142.612 165.448 142.218 160.246C141.873 155.144 142.365 150.388 143.843 145.534C145.074 141.571 146.502 137.558 146.453 133.348C146.403 128.939 144.926 124.679 143.597 120.567C142.07 115.96 140.937 111.353 140.987 106.449C141.085 96.8391 144.532 87.6252 147.93 78.7581C147.979 78.6095 148.028 78.4608 148.127 78.2627C148.275 78.1141 148.373 77.8664 148.324 77.6187C147.881 74.2502 151.229 71.7733 154.282 73.1604C154.479 73.2594 154.627 73.2594 154.824 73.2099C155.464 73.8043 156.055 74.4979 156.548 75.1418C160.733 80.4918 161.817 87.6747 161.866 94.4117C161.915 102.04 160.783 109.719 162.063 117.347C163.392 124.927 168.908 130.97 169.942 138.549C170.976 145.98 167.775 153.608 170.73 160.841C171.124 161.782 171.665 162.822 172.306 163.912C172.65 163.516 172.995 163.169 173.29 162.773C173.241 162.674 173.192 162.525 173.093 162.426C168.76 154.302 172.847 145.93 171.222 137.41C170.533 133.645 168.662 130.276 166.938 126.908C164.771 122.648 163.393 118.388 162.999 113.583C161.964 100.703 166.347 84.6034 157.385 73.8539C156.745 73.0613 155.957 72.2687 155.169 71.5752C154.824 71.278 154.43 71.3771 154.184 71.5752C152.608 71.0798 151.032 71.2779 149.752 71.9715C148.57 72.6154 147.635 73.7053 147.142 75.0428C146.896 75.7858 146.748 76.5784 146.797 77.4701C146.748 77.5197 146.748 77.5692 146.699 77.6187C146.6 77.8168 146.551 78.0645 146.453 78.2627C142.316 88.9131 138.18 100.307 139.805 111.948C140.642 117.199 142.759 121.905 144.04 126.858Z" fill="#6E98C2"/>
<path d="M144.04 126.859C145.566 132.605 144.877 137.608 143.104 143.156C141.528 148.258 140.445 153.014 140.642 158.364C140.839 164.061 141.627 169.708 142.218 175.355C142.562 178.773 142.415 182.984 143.991 186.204C144.483 185.956 144.926 185.708 145.419 185.461C155.612 179.913 164.722 172.631 172.355 163.962C172.7 163.565 173.044 163.219 173.34 162.822C173.291 162.723 173.241 162.575 173.143 162.476C168.809 154.352 172.897 145.98 171.272 137.459C170.582 133.695 168.711 130.326 166.987 126.958C164.821 122.697 163.442 118.437 163.048 113.632C162.014 100.753 166.396 84.653 157.434 73.9035C156.794 73.1109 156.006 72.3183 155.218 71.6248C154.873 71.3276 154.479 71.4267 154.233 71.6248C152.657 71.1294 151.082 71.3276 149.801 72.0211C148.619 72.6651 147.684 73.7549 147.191 75.0924C146.945 75.8354 146.797 76.6281 146.847 77.5197C146.797 77.5693 146.797 77.6188 146.748 77.6683C146.65 77.8664 146.6 78.1141 146.502 78.3123C142.366 88.9627 138.229 100.356 139.854 111.997C140.642 117.199 142.759 121.905 144.04 126.859Z" fill="#6E98C2"/>
<path d="M159.157 61.6183C160.389 62.0146 161.176 63.2034 160.979 64.4914C159.748 72.764 155.218 78.9562 149.703 79.0057C143.153 79.0553 137.786 70.5844 137.687 59.9835C137.638 57.2095 137.983 54.584 138.623 52.1567C139.165 50.2247 141.577 49.5808 143.006 50.9678C147.782 55.6738 152.904 59.5873 159.157 61.6183Z" fill="white"/>
<path d="M96.0765 62.2623C94.8946 62.6586 94.1068 63.897 94.3037 65.185C95.6825 73.4576 100.361 79.5507 105.876 79.5011C112.425 79.4516 117.596 70.8322 117.497 60.2313C117.448 57.4572 117.054 54.8317 116.414 52.454C115.872 50.522 113.41 49.9276 111.982 51.3641C107.304 56.1197 102.281 60.0826 96.0765 62.2623Z" fill="white"/>
<path d="M131.187 97.7307C131.433 95.3034 131.68 89.0618 127.642 89.4085C123.801 89.7553 124.392 95.8978 124.589 98.4242C124.835 101.297 120.403 101.248 120.157 98.4242C119.763 93.1733 120.748 85.0988 127.642 84.9502C134.437 84.8016 136.161 92.4302 135.619 97.7307C135.324 100.554 130.892 100.604 131.187 97.7307Z" fill="#363636"/>
<path d="M145.763 76.3803C147.395 76.3803 148.718 75.0495 148.718 73.408C148.718 71.7665 147.395 70.4358 145.763 70.4358C144.132 70.4358 142.809 71.7665 142.809 73.408C142.809 75.0495 144.132 76.3803 145.763 76.3803Z" fill="#363636"/>
<path d="M109.815 76.3803C111.447 76.3803 112.77 75.0495 112.77 73.408C112.77 71.7665 111.447 70.4358 109.815 70.4358C108.184 70.4358 106.861 71.7665 106.861 73.408C106.861 75.0495 108.184 76.3803 109.815 76.3803Z" fill="#363636"/>
</svg>
