<svg width="196" height="198" viewBox="0 0 196 198" fill="none" xmlns="http://www.w3.org/2000/svg">
<path d="M97.9948 197.742C152.116 197.742 195.99 153.607 195.99 99.1639C195.99 44.7204 152.116 0.585327 97.9948 0.585327C43.8738 0.585327 0 44.7204 0 99.1639C0 153.607 43.8738 197.742 97.9948 197.742Z" fill="#E1793F"/>
<path d="M16.2504 70.482C16.2504 79.5472 20.5346 86.631 26.1483 86.631C31.7621 86.631 36.2925 79.2996 36.2925 70.1848C36.2925 61.07 31.7621 53.7385 26.1483 53.7385C20.5346 53.788 16.2504 61.4167 16.2504 70.482Z" fill="white"/>
<path d="M20.6823 70.3334C20.6823 75.3861 23.0953 79.3491 26.1976 79.3491C29.3492 79.3491 31.8606 75.2375 31.8606 70.1848C31.8606 65.132 29.2999 61.0204 26.1976 61.0204C23.046 61.0204 20.6823 65.2806 20.6823 70.3334Z" fill="#363636"/>
<path d="M163.981 70.3334C163.981 75.3861 166.394 79.3491 169.497 79.3491C172.648 79.3491 175.16 75.2375 175.16 70.1848C175.16 65.132 172.599 61.0204 169.497 61.0204C166.345 61.0204 163.981 65.2806 163.981 70.3334Z" fill="white"/>
<path d="M169.792 86.631C175.394 86.631 179.936 79.2678 179.936 70.1848C179.936 61.1017 175.394 53.7385 169.792 53.7385C164.19 53.7385 159.648 61.1017 159.648 70.1848C159.648 79.2678 164.19 86.631 169.792 86.631Z" fill="white"/>
<path d="M83.468 156.627C84.5021 163.314 87.9491 167.525 95.6804 169.209C102.574 170.695 108.631 167.178 113.31 162.026C115.033 160.094 116.609 157.964 117.988 155.785C121.09 150.781 123.158 145.481 123.848 141.964C124.833 137.01 124.833 130.471 122.666 125.072C120.302 119.177 115.427 114.619 106.563 114.917C103.362 115.016 98.832 117.443 94.6463 121.456C89.5742 126.36 84.9945 133.592 83.8619 142.063C83.6157 143.995 83.4187 145.828 83.271 147.512C83.0248 150.98 83.074 154.001 83.468 156.627Z" fill="#363636"/>
<path d="M163.981 70.3334C163.981 75.3861 166.394 79.3491 169.497 79.3491C172.648 79.3491 175.16 75.2375 175.16 70.1848C175.16 65.132 172.599 61.0204 169.497 61.0204C166.345 61.0204 163.981 65.2806 163.981 70.3334Z" fill="#363636"/>
<path d="M23.046 67.3612C23.0952 66.8658 23.243 66.4199 23.4892 66.0236C23.7354 65.0824 24.5233 64.2899 25.7544 64.2899C28.2658 64.2899 29.1522 66.4695 29.3984 68.5996C29.6446 70.5811 29.6446 73.3551 28.5613 75.1385C27.1332 77.4172 24.2278 76.2778 23.4399 74.0982C22.652 71.9681 22.7998 69.5903 23.046 67.3612Z" fill="#363636"/>
<path d="M167.724 65.0329C168.856 63.8936 170.629 63.7449 171.86 64.6861C172.304 65.0329 172.55 65.3797 172.697 65.776C172.796 65.9741 172.894 66.1723 172.894 66.3704C172.894 66.42 172.894 66.42 172.894 66.4695C173.042 67.0144 173.091 67.5593 173.288 68.1042C173.535 68.7482 173.485 69.3426 173.239 69.7884C173.288 71.5718 173.091 73.3551 172.107 74.7421C170.235 77.4171 166.542 76.4759 165.951 73.3551C165.606 70.9278 165.853 66.9153 167.724 65.0329Z" fill="#363636"/>
</svg>
